<svg width="136" height="38" viewBox="0 0 136 38" fill="none" xmlns="http://www.w3.org/2000/svg">
<path d="M21.5086 17.7349C21.4727 13.7436 24.781 11.8018 24.9323 11.7114C23.0586 8.98329 20.1545 8.61054 19.134 8.58082C16.6949 8.32448 14.329 10.0384 13.0865 10.0384C11.8192 10.0384 9.90586 8.60559 7.84373 8.64769C5.19011 8.68856 2.70761 10.2229 1.34609 12.6055C-1.46377 17.4637 0.631841 24.6029 3.3239 28.5298C4.67055 30.453 6.24412 32.6003 8.30377 32.5248C10.3188 32.4418 11.0715 31.2418 13.5031 31.2418C15.9125 31.2418 16.6193 32.5248 18.7198 32.4765C20.8824 32.4418 22.2439 30.5446 23.5435 28.6041C25.0997 26.3998 25.7246 24.2289 25.7494 24.1175C25.6986 24.1001 21.5495 22.5187 21.5086 17.7349Z" fill="white"/>
<path d="M17.5396 5.9973C18.6234 4.64376 19.3649 2.8023 19.159 0.933594C17.5904 1.00294 15.6287 2.01717 14.4991 3.34099C13.4996 4.50754 12.6068 6.41959 12.8375 8.21771C14.5995 8.34897 16.4087 7.32979 17.5396 5.9973Z" fill="white"/>
<path d="M50.6698 32.2479H47.8537L46.3111 27.4071H40.9493L39.4799 32.2479H36.7383L42.0505 15.7676H45.3315L50.6698 32.2479ZM45.8461 25.3761L44.4511 21.0728C44.3036 20.6331 44.027 19.5979 43.6191 17.9682H43.5695C43.407 18.6691 43.1454 19.7044 42.7858 21.0728L41.4156 25.3761H45.8461Z" fill="white"/>
<path d="M64.33 26.1587C64.33 28.1797 63.7832 29.7772 62.6895 30.95C61.7099 31.9939 60.4934 32.5153 59.0414 32.5153C57.474 32.5153 56.3481 31.953 55.6624 30.8286H55.6127V37.0886H52.9691V24.2751C52.9691 23.0045 52.9356 21.7005 52.8711 20.3631H55.1961L55.3437 22.2467H55.3933C56.2749 20.8275 57.6129 20.1191 59.4084 20.1191C60.8121 20.1191 61.9839 20.6727 62.9214 21.781C63.8613 22.8906 64.33 24.3494 64.33 26.1587ZM61.6367 26.2553C61.6367 25.0986 61.3763 24.1451 60.853 23.3946C60.2814 22.612 59.5138 22.2207 58.5516 22.2207C57.8993 22.2207 57.3066 22.4386 56.7771 22.8683C56.2464 23.3018 55.8992 23.8677 55.7367 24.5686C55.6549 24.8955 55.614 25.163 55.614 25.3736V27.355C55.614 28.2193 55.8794 28.9487 56.4101 29.5444C56.9408 30.1401 57.6302 30.4373 58.4784 30.4373C59.4741 30.4373 60.2491 30.0534 60.8034 29.2881C61.3589 28.5215 61.6367 27.511 61.6367 26.2553Z" fill="white"/>
<path d="M78.0163 26.1587C78.0163 28.1797 77.4694 29.7772 76.3745 30.95C75.3961 31.9939 74.1797 32.5153 72.7276 32.5153C71.1603 32.5153 70.0343 31.953 69.3499 30.8286H69.3002V37.0886H66.6566V24.2751C66.6566 23.0045 66.6231 21.7005 66.5586 20.3631H68.8836L69.0312 22.2467H69.0808C69.9612 20.8275 71.2991 20.1191 73.0959 20.1191C74.4984 20.1191 75.6702 20.6727 76.6101 21.781C77.5463 22.8906 78.0163 24.3494 78.0163 26.1587ZM75.323 26.2553C75.323 25.0986 75.0613 24.1451 74.538 23.3946C73.9664 22.612 73.2013 22.2207 72.2378 22.2207C71.5843 22.2207 70.9929 22.4386 70.4621 22.8683C69.9314 23.3018 69.5854 23.8677 69.423 24.5686C69.3424 24.8955 69.3002 25.163 69.3002 25.3736V27.355C69.3002 28.2193 69.5656 28.9487 70.0939 29.5444C70.6246 30.1388 71.314 30.4373 72.1647 30.4373C73.1604 30.4373 73.9354 30.0534 74.4897 29.2881C75.0452 28.5215 75.323 27.511 75.323 26.2553Z" fill="white"/>
<path d="M93.3195 27.6255C93.3195 29.0274 92.8322 30.1679 91.8539 31.0484C90.7788 32.0106 89.2821 32.4911 87.3588 32.4911C85.5831 32.4911 84.1596 32.1493 83.082 31.4645L83.6946 29.2639C84.8552 29.9648 86.1287 30.3165 87.5163 30.3165C88.512 30.3165 89.287 30.0911 89.8438 29.6428C90.3981 29.1946 90.6746 28.5927 90.6746 27.8423C90.6746 27.1735 90.4464 26.6101 89.9889 26.1531C89.5338 25.6962 88.7737 25.2714 87.7122 24.8788C84.823 23.8027 83.3796 22.2262 83.3796 20.1532C83.3796 18.7984 83.8856 17.6876 84.8986 16.8232C85.908 15.9576 87.2547 15.5254 88.9386 15.5254C90.4402 15.5254 91.6877 15.7867 92.6834 16.308L92.0225 18.4603C91.0925 17.9551 90.041 17.7025 88.8642 17.7025C87.9342 17.7025 87.2075 17.9316 86.6867 18.3873C86.2465 18.7947 86.0258 19.2913 86.0258 19.8795C86.0258 20.5309 86.2775 21.0696 86.7835 21.4931C87.2237 21.8844 88.0235 22.308 89.1841 22.7649C90.6039 23.3358 91.6468 24.0033 92.3176 24.7686C92.986 25.5314 93.3195 26.4862 93.3195 27.6255Z" fill="white"/>
<path d="M102.059 22.3447H99.1451V28.1143C99.1451 29.5817 99.6584 30.3149 100.688 30.3149C101.16 30.3149 101.552 30.274 101.862 30.1923L101.935 32.1972C101.414 32.3916 100.729 32.4894 99.8792 32.4894C98.8351 32.4894 98.0192 32.1712 97.4302 31.5359C96.8436 30.8994 96.5485 29.8319 96.5485 28.3322V22.3422H94.8125V20.3608H96.5485V18.185L99.1451 17.4023V20.3608H102.059V22.3447Z" fill="white"/>
<path d="M115.208 26.2077C115.208 28.0343 114.684 29.534 113.64 30.7067C112.545 31.9141 111.092 32.516 109.28 32.516C107.534 32.516 106.144 31.9376 105.108 30.781C104.071 29.6244 103.553 28.1643 103.553 26.4046C103.553 24.5631 104.086 23.0548 105.156 21.8821C106.224 20.7081 107.665 20.1211 109.476 20.1211C111.222 20.1211 112.627 20.6994 113.687 21.8573C114.702 22.9805 115.208 24.4306 115.208 26.2077ZM112.465 26.2931C112.465 25.1972 112.23 24.2573 111.755 23.4734C111.201 22.5248 110.409 22.0517 109.382 22.0517C108.319 22.0517 107.512 22.526 106.958 23.4734C106.483 24.2585 106.249 25.2133 106.249 26.3427C106.249 27.4386 106.483 28.3786 106.958 29.1612C107.529 30.1098 108.328 30.5829 109.358 30.5829C110.368 30.5829 111.16 30.0999 111.732 29.1365C112.219 28.3377 112.465 27.3879 112.465 26.2931Z" fill="white"/>
<path d="M123.8 22.6851C123.538 22.6368 123.259 22.612 122.967 22.612C122.037 22.612 121.317 22.9624 120.811 23.6646C120.371 24.2838 120.15 25.0664 120.15 26.0113V32.2465H117.508L117.533 24.1055C117.533 22.7358 117.499 21.4888 117.434 20.3643H119.736L119.833 22.638H119.906C120.185 21.8566 120.625 21.2275 121.228 20.7557C121.817 20.3309 122.453 20.1191 123.139 20.1191C123.383 20.1191 123.604 20.1365 123.8 20.1674V22.6851Z" fill="white"/>
<path d="M135.624 25.7434C135.624 26.2165 135.593 26.6152 135.527 26.9409H127.596C127.627 28.1149 128.01 29.0127 128.747 29.6319C129.415 30.1854 130.279 30.4628 131.341 30.4628C132.515 30.4628 133.586 30.2758 134.55 29.9006L134.964 31.7334C133.838 32.2238 132.509 32.4678 130.975 32.4678C129.13 32.4678 127.681 31.9254 126.627 30.8418C125.576 29.7582 125.049 28.3031 125.049 26.4778C125.049 24.6858 125.539 23.1936 126.519 22.0035C127.546 20.7329 128.934 20.0977 130.68 20.0977C132.395 20.0977 133.693 20.7329 134.575 22.0035C135.273 23.0128 135.624 24.2611 135.624 25.7434ZM133.103 25.0586C133.12 24.2759 132.948 23.5998 132.589 23.0289C132.132 22.2945 131.429 21.928 130.483 21.928C129.618 21.928 128.915 22.2859 128.378 23.0041C127.938 23.575 127.676 24.2598 127.596 25.0573L133.103 25.0586Z" fill="white"/>
<path d="M44.9724 5.62791C44.9724 7.08548 44.5347 8.18268 43.6605 8.91951C42.8507 9.59937 41.7 9.93993 40.2095 9.93993C39.4705 9.93993 38.8381 9.90773 38.3086 9.84333V1.87936C38.9993 1.7679 39.7433 1.71094 40.5468 1.71094C41.9666 1.71094 43.0367 2.01929 43.7584 2.636C44.5669 3.33321 44.9724 4.3301 44.9724 5.62791ZM43.6022 5.66382C43.6022 4.71895 43.3517 3.9945 42.8507 3.48924C42.3498 2.98522 41.6182 2.7326 40.6547 2.7326C40.2455 2.7326 39.897 2.75984 39.6081 2.8168V8.87121C39.7681 8.89598 40.0607 8.90712 40.486 8.90712C41.4805 8.90712 42.2481 8.63097 42.7887 8.07865C43.3294 7.52634 43.6022 6.7214 43.6022 5.66382Z" fill="white"/>
<path d="M52.2368 6.90154C52.2368 7.79936 51.9802 8.53496 51.4668 9.11204C50.9286 9.70522 50.2156 10.0012 49.3253 10.0012C48.4672 10.0012 47.784 9.7176 47.2743 9.14795C46.7659 8.57954 46.5117 7.86252 46.5117 6.99813C46.5117 6.09412 46.7734 5.35234 47.2991 4.77649C47.8249 4.20065 48.5317 3.91211 49.422 3.91211C50.2801 3.91211 50.9695 4.1957 51.4916 4.76411C51.9876 5.31642 52.2368 6.02973 52.2368 6.90154ZM50.8889 6.94365C50.8889 6.40495 50.7724 5.94304 50.5405 5.55791C50.2677 5.09228 49.8796 4.85946 49.3749 4.85946C48.8529 4.85946 48.4561 5.09228 48.1832 5.55791C47.9501 5.94304 47.8348 6.41238 47.8348 6.96718C47.8348 7.50587 47.9514 7.96778 48.1832 8.35291C48.4647 8.81854 48.8566 9.05136 49.3625 9.05136C49.8585 9.05136 50.2479 8.81483 50.5281 8.34053C50.7687 7.94797 50.8889 7.48234 50.8889 6.94365Z" fill="white"/>
<path d="M61.979 4.03125L60.15 9.86894H58.9596L58.202 7.33399C58.0098 6.70118 57.8535 6.07209 57.732 5.44795H57.7084C57.5956 6.08943 57.4394 6.71728 57.2385 7.33399L56.4337 9.86894H55.2297L53.5098 4.03125H54.8453L55.5062 6.80644C55.6661 7.46278 55.7976 8.08816 55.903 8.6801H55.9265C56.0233 8.19218 56.1832 7.57052 56.4089 6.81883L57.2385 4.03249H58.2974L59.0923 6.75939C59.2845 7.42439 59.4407 8.06463 59.561 8.68134H59.597C59.685 8.08073 59.8177 7.44049 59.9938 6.75939L60.703 4.03249H61.979V4.03125Z" fill="white"/>
<path d="M68.7155 9.86849H67.416V6.52489C67.416 5.49456 67.0241 4.9794 66.238 4.9794C65.8523 4.9794 65.5411 5.12057 65.2993 5.40416C65.06 5.68775 64.9384 6.02211 64.9384 6.40476V9.86726H63.6389V5.69889C63.6389 5.1862 63.6228 4.63017 63.5918 4.02833H64.7338L64.7946 4.94101H64.8306C64.9818 4.65742 65.2075 4.42337 65.5039 4.23637C65.8561 4.01842 66.2504 3.9082 66.6819 3.9082C67.2275 3.9082 67.6813 4.08405 68.0422 4.43699C68.4911 4.86918 68.7155 5.51437 68.7155 6.37133V9.86849Z" fill="white"/>
<path d="M72.3002 9.86785H71.002V1.35156H72.3002V9.86785Z" fill="white"/>
<path d="M79.9517 6.90154C79.9517 7.79936 79.695 8.53496 79.1816 9.11204C78.6435 9.70522 77.9292 10.0012 77.0401 10.0012C76.1808 10.0012 75.4976 9.7176 74.9892 9.14795C74.4808 8.57954 74.2266 7.86252 74.2266 6.99813C74.2266 6.09412 74.4882 5.35234 75.014 4.77649C75.5397 4.20065 76.2465 3.91211 77.1356 3.91211C77.9949 3.91211 78.6831 4.1957 79.2064 4.76411C79.7024 5.31642 79.9517 6.02973 79.9517 6.90154ZM78.6025 6.94365C78.6025 6.40495 78.486 5.94304 78.2541 5.55791C77.9825 5.09228 77.5932 4.85946 77.0897 4.85946C76.5665 4.85946 76.1697 5.09228 75.8981 5.55791C75.665 5.94304 75.5497 6.41238 75.5497 6.96718C75.5497 7.50587 75.6662 7.96778 75.8981 8.35291C76.1796 8.81854 76.5714 9.05136 77.0773 9.05136C77.5733 9.05136 77.9615 8.81483 78.2417 8.34053C78.4835 7.94797 78.6025 7.48234 78.6025 6.94365Z" fill="white"/>
<path d="M86.2402 9.86868H85.0734L84.9767 9.19625H84.9407C84.5414 9.73246 83.9723 10.0012 83.2332 10.0012C82.6814 10.0012 82.235 9.8241 81.899 9.4724C81.5939 9.1529 81.4414 8.75539 81.4414 8.28357C81.4414 7.57026 81.739 7.02662 82.3379 6.65015C82.9356 6.27369 83.7763 6.08917 84.8589 6.09784V5.98886C84.8589 5.21983 84.4546 4.83594 83.6449 4.83594C83.0683 4.83594 82.5599 4.98083 82.1209 5.26813L81.8568 4.41613C82.3999 4.08053 83.0708 3.91211 83.8619 3.91211C85.3896 3.91211 86.1559 4.71705 86.1559 6.32694V8.47675C86.1559 9.06003 86.1844 9.52442 86.2402 9.86868ZM84.8911 7.86252V6.96222C83.4577 6.93746 82.7409 7.33002 82.7409 8.13868C82.7409 8.44332 82.8228 8.67118 82.9902 8.8235C83.1576 8.97582 83.3709 9.05136 83.6251 9.05136C83.9103 9.05136 84.1769 8.96096 84.4199 8.78139C84.6642 8.60059 84.8142 8.37149 84.87 8.09038C84.8837 8.02722 84.8911 7.95044 84.8911 7.86252Z" fill="white"/>
<path d="M93.625 9.86785H92.4717L92.411 8.93041H92.375C92.0067 9.64371 91.3793 10.0004 90.4977 10.0004C89.7933 10.0004 89.2068 9.7242 88.7418 9.17189C88.2768 8.61957 88.0449 7.90256 88.0449 7.02207C88.0449 6.07719 88.2966 5.31188 88.8026 4.72737C89.2924 4.18248 89.8925 3.91004 90.6068 3.91004C91.3917 3.91004 91.941 4.17381 92.2535 4.7026H92.2783V1.35156H93.5791V8.29512C93.5791 8.86353 93.594 9.38737 93.625 9.86785ZM92.2783 7.40597V6.43261C92.2783 6.26419 92.2659 6.12797 92.2423 6.02394C92.1692 5.71187 92.0117 5.44934 91.7724 5.23758C91.5306 5.02582 91.2392 4.91932 90.9031 4.91932C90.4183 4.91932 90.0388 5.11126 89.7598 5.4964C89.4833 5.88153 89.3432 6.37317 89.3432 6.97378C89.3432 7.55086 89.4759 8.01896 89.7425 8.37933C90.024 8.76323 90.4034 8.95517 90.8783 8.95517C91.3049 8.95517 91.6459 8.79542 91.9051 8.47468C92.1555 8.17871 92.2783 7.82206 92.2783 7.40597Z" fill="white"/>
<path d="M104.739 6.90154C104.739 7.79936 104.482 8.53496 103.969 9.11204C103.431 9.70522 102.719 10.0012 101.827 10.0012C100.97 10.0012 100.287 9.7176 99.7763 9.14795C99.2679 8.57954 99.0137 7.86252 99.0137 6.99813C99.0137 6.09412 99.2753 5.35234 99.8011 4.77649C100.327 4.20065 101.034 3.91211 101.925 3.91211C102.782 3.91211 103.473 4.1957 103.994 4.76411C104.49 5.31642 104.739 6.02973 104.739 6.90154ZM103.392 6.94365C103.392 6.40495 103.276 5.94304 103.044 5.55791C102.77 5.09228 102.383 4.85946 101.877 4.85946C101.356 4.85946 100.959 5.09228 100.685 5.55791C100.452 5.94304 100.337 6.41238 100.337 6.96718C100.337 7.50587 100.453 7.96778 100.685 8.35291C100.967 8.81854 101.359 9.05136 101.864 9.05136C102.36 9.05136 102.751 8.81483 103.031 8.34053C103.271 7.94797 103.392 7.48234 103.392 6.94365Z" fill="white"/>
<path d="M111.726 9.86849H110.428V6.52489C110.428 5.49456 110.036 4.9794 109.248 4.9794C108.863 4.9794 108.552 5.12057 108.311 5.40416C108.07 5.68775 107.95 6.02211 107.95 6.40476V9.86726H106.649V5.69889C106.649 5.1862 106.635 4.63017 106.604 4.02833H107.744L107.805 4.94101H107.841C107.994 4.65742 108.219 4.42337 108.514 4.23637C108.868 4.01842 109.261 3.9082 109.694 3.9082C110.238 3.9082 110.692 4.08405 111.053 4.43699C111.503 4.86918 111.726 5.51437 111.726 6.37133V9.86849Z" fill="white"/>
<path d="M120.472 5.00214H119.041V7.83802C119.041 8.55875 119.295 8.91912 119.799 8.91912C120.032 8.91912 120.225 8.89931 120.378 8.85844L120.411 9.84295C120.155 9.93954 119.817 9.98783 119.402 9.98783C118.889 9.98783 118.489 9.8318 118.2 9.51973C117.91 9.20766 117.766 8.68259 117.766 7.94576V5.00214H116.912V4.03002H117.766V2.96007L119.04 2.57617V4.02878H120.471L120.472 5.00214Z" fill="white"/>
<path d="M127.35 9.86785H126.049V6.54901C126.049 5.50259 125.657 4.97876 124.872 4.97876C124.27 4.97876 123.858 5.28216 123.632 5.88896C123.594 6.01651 123.572 6.17255 123.572 6.35583V9.86662H122.273V1.35156H123.572V4.86978H123.597C124.006 4.22954 124.592 3.91004 125.352 3.91004C125.891 3.91004 126.336 4.08589 126.689 4.43883C127.129 4.87845 127.35 5.53231 127.35 6.39669V9.86785Z" fill="white"/>
<path d="M134.447 6.67311C134.447 6.90592 134.43 7.10158 134.399 7.26134H130.501C130.519 7.83842 130.705 8.27804 131.065 8.58268C131.395 8.85512 131.821 8.99134 132.341 8.99134C132.918 8.99134 133.444 8.8997 133.917 8.71518L134.121 9.61672C133.566 9.85696 132.914 9.97709 132.159 9.97709C131.254 9.97709 130.541 9.71084 130.025 9.17834C129.507 8.64584 129.25 7.9313 129.25 7.03471C129.25 6.15423 129.489 5.42111 129.972 4.8366C130.475 4.21246 131.156 3.90039 132.015 3.90039C132.856 3.90039 133.495 4.21246 133.926 4.8366C134.275 5.33195 134.447 5.94494 134.447 6.67311ZM133.207 6.33751C133.217 5.95237 133.131 5.62049 132.955 5.34062C132.729 4.98025 132.386 4.79945 131.921 4.79945C131.497 4.79945 131.151 4.9753 130.887 5.32823C130.671 5.60935 130.543 5.94494 130.501 6.33751H133.207Z" fill="white"/>
</svg>
