<svg width="163" height="139" viewBox="0 0 163 139" fill="none" xmlns="http://www.w3.org/2000/svg">
<g clip-path="url(#clip0_763_5676)">
<path opacity="0.3" d="M-28.8977 117.374C-25.1128 122.379 -21.2774 127.437 -15.9336 131.686C-13.1065 133.933 -9.78984 135.946 -6.11283 137.466H174.536C183.231 133.695 190.767 128.734 195.662 122.482C203.284 112.75 203.147 99.5996 192.626 91.3041C181.492 82.5242 161.205 80.2692 153.543 69.8173C148.38 62.7739 150.801 54.2191 154.42 46.7164C158.039 39.2138 162.813 31.6444 162.015 23.7433C161.315 16.8105 156.047 10.1705 148.02 6.10098C139.993 2.03149 129.356 0.60897 119.759 2.3215C109.675 4.12078 101.365 9.02871 93.8159 14.0537C86.2664 19.0787 78.8843 24.47 69.5204 27.6532C60.1565 30.8364 48.0941 31.3397 39.9686 26.7788C34.5376 23.7302 30.9551 18.6003 24.1613 17.558C16.6398 16.404 9.88807 20.9922 5.76825 25.5572C-6.01271 38.6114 -9.577 55.1789 -3.81292 70.0926C-2.12348 74.4637 0.337959 78.7472 0.736954 83.2677C1.13589 87.7881 -1.05068 92.7912 -6.59432 95.1093C-13.7767 98.1127 -24.2507 95.8104 -30.3634 99.8136C-33.6614 101.973 -34.6034 105.467 -33.8807 108.592C-33.158 111.717 -31.0122 114.577 -28.8977 117.374Z" fill="#D0CDC4"/>
<g style="mix-blend-mode:multiply">
<path d="M45.7151 80.235C45.6707 80.235 45.6262 80.2239 45.5852 80.2056C45.5407 80.1873 45.5065 80.1615 45.4722 80.1286C45.4415 80.0919 45.4175 80.0516 45.4004 80.0075C45.3834 79.9634 45.373 79.9158 45.373 79.8681C45.373 79.8205 45.3834 79.7727 45.4004 79.7287C45.4175 79.6809 45.4415 79.6406 45.4722 79.6077C45.5065 79.5745 45.5407 79.5489 45.5852 79.5306C45.6672 79.4901 45.763 79.4901 45.8451 79.5306C45.8862 79.5489 45.9237 79.5745 45.958 79.6077C45.9889 79.6406 46.0128 79.6809 46.0298 79.7287C46.047 79.7727 46.0572 79.8205 46.0572 79.8681C46.0572 79.9158 46.047 79.9634 46.0298 80.0075C46.0128 80.0516 45.9889 80.0919 45.958 80.1286C45.9237 80.1615 45.8862 80.1873 45.8451 80.2056C45.8042 80.2239 45.7596 80.235 45.7151 80.235Z" fill="#D0CDC4"/>
<path d="M44.3193 79.648H44.3228C44.1449 79.571 44.0627 79.3546 44.1345 79.1674C44.2099 78.9804 44.4083 78.8922 44.5827 78.9692C44.7572 79.0463 44.8392 79.2629 44.7674 79.4499C44.7126 79.5893 44.5862 79.6774 44.4527 79.6774C44.4083 79.6774 44.3639 79.6663 44.3193 79.648ZM43.057 79.0794C42.8826 79.0022 42.804 78.7858 42.8758 78.5988C42.951 78.4116 43.1529 78.3272 43.324 78.4043C43.4983 78.485 43.5805 78.6979 43.5052 78.8849C43.4504 79.0242 43.324 79.1086 43.1905 79.1086C43.146 79.1086 43.1015 79.1013 43.057 79.0794ZM41.7983 78.4997C41.6273 78.4189 41.5484 78.1988 41.6237 78.0153C41.6991 77.8283 41.9009 77.7439 42.0753 77.8283C42.2463 77.9089 42.325 78.1255 42.2498 78.3089C42.195 78.4483 42.0684 78.5291 41.9351 78.5291C41.8905 78.5291 41.8427 78.5218 41.7983 78.4997ZM40.5462 77.8944C40.3752 77.8099 40.2999 77.5935 40.3821 77.41C40.4572 77.223 40.6625 77.146 40.8336 77.2304C41.0046 77.3147 41.0799 77.5311 41.0012 77.7146C40.9431 77.8503 40.8198 77.9274 40.6899 77.9274C40.642 77.9274 40.5942 77.92 40.5462 77.8944ZM39.3046 77.2633C39.1369 77.1752 39.0651 76.9552 39.1472 76.7718C39.2327 76.5919 39.4345 76.5149 39.6055 76.603C39.7766 76.6947 39.8449 76.9111 39.7629 77.0946C39.7048 77.2266 39.5815 77.3 39.4551 77.3C39.4071 77.3 39.3559 77.2889 39.3046 77.2633ZM38.0764 76.5957C37.9089 76.5039 37.8472 76.28 37.9328 76.1039C38.0218 75.9242 38.2269 75.8546 38.3946 75.9463C38.5621 76.0416 38.6273 76.2617 38.5382 76.4414C38.4766 76.5663 38.3604 76.6395 38.2372 76.6395C38.1825 76.6395 38.1277 76.6249 38.0764 76.5957ZM36.8689 75.8911C36.7048 75.7885 36.6466 75.5647 36.739 75.3886C36.8347 75.2125 37.0433 75.15 37.2075 75.2528C37.3717 75.3519 37.4265 75.5756 37.3341 75.7517C37.2725 75.8692 37.1563 75.9389 37.0365 75.9389C36.9784 75.9389 36.9202 75.9242 36.8689 75.8911ZM35.6819 75.1355C35.5212 75.0291 35.4733 74.8016 35.5725 74.6291C35.6717 74.4567 35.8838 74.4053 36.0445 74.5117C36.2018 74.6181 36.2531 74.8456 36.1541 75.018C36.089 75.1282 35.9762 75.1905 35.8633 75.1905C35.8016 75.1905 35.7367 75.172 35.6819 75.1355ZM34.5257 74.3245C34.3684 74.211 34.3308 73.9835 34.4369 73.8183C34.5428 73.6495 34.7549 73.6055 34.9122 73.7192C35.0662 73.8367 35.1073 74.0641 35.0013 74.2292C34.9328 74.3356 34.8267 74.3906 34.7173 74.3906C34.6523 74.3906 34.5839 74.3686 34.5257 74.3245ZM33.4038 73.4587C33.2531 73.3376 33.2224 73.1066 33.3353 72.9452C33.4516 72.7838 33.6637 72.7508 33.8177 72.8755C33.9682 72.9966 33.9956 73.2277 33.8827 73.3891C33.8142 73.4845 33.7116 73.5358 33.6089 73.5358C33.5371 73.5358 33.4652 73.5101 33.4038 73.4587ZM32.3228 72.5306C32.1791 72.3984 32.1619 72.1673 32.2852 72.0133C32.4083 71.8592 32.6238 71.8409 32.7674 71.973C32.911 72.1014 32.9283 72.3361 32.8052 72.4902C32.7367 72.5747 32.641 72.6186 32.5451 72.6186C32.4664 72.6186 32.3877 72.5892 32.3228 72.5306ZM31.2966 71.5291C31.1598 71.3859 31.1562 71.1548 31.2897 71.0081C31.4197 70.865 31.6351 70.8612 31.7721 71.0008C31.9089 71.1437 31.9122 71.375 31.779 71.5217C31.7138 71.595 31.625 71.6317 31.5326 71.6317C31.447 71.6317 31.3615 71.5988 31.2966 71.5291ZM30.3285 70.4578C30.2019 70.3074 30.2122 70.0763 30.3524 69.9405C30.4927 69.8047 30.7081 69.8158 30.8382 69.9661C30.9647 70.1165 30.9545 70.3476 30.8142 70.4834C30.7492 70.5495 30.6672 70.5787 30.585 70.5787C30.4893 70.5787 30.3969 70.5384 30.3285 70.4578ZM29.4322 69.3241C29.316 69.1626 29.3398 68.9316 29.487 68.8069C29.6375 68.682 29.8496 68.7078 29.9693 68.8692C30.0856 69.0268 30.0617 69.2581 29.9112 69.3828C29.8496 69.4342 29.7743 69.4598 29.6991 69.4598C29.5999 69.4598 29.5007 69.4122 29.4322 69.3241ZM28.6079 68.1208C28.5018 67.952 28.5429 67.7245 28.7003 67.6108C28.8541 67.497 29.0696 67.5411 29.1756 67.7062H29.1723C29.2817 67.875 29.2406 68.1023 29.0833 68.2161C29.0252 68.2601 28.9568 68.2784 28.8917 68.2784C28.7823 68.2784 28.6729 68.2234 28.6079 68.1208ZM27.869 66.8514C27.7766 66.6753 27.8347 66.4514 27.9989 66.3523C28.1598 66.2533 28.3684 66.312 28.4641 66.4881C28.5565 66.6642 28.5018 66.8881 28.3377 66.987C28.2829 67.0201 28.2247 67.0384 28.1666 67.0384C28.0502 67.0384 27.9339 66.9725 27.869 66.8514ZM27.2293 65.5268V65.5232C27.1472 65.3398 27.2224 65.1234 27.3934 65.0353C27.5645 64.9509 27.7664 65.0317 27.8484 65.2151C27.9271 65.3986 27.8519 65.615 27.6809 65.7029C27.6363 65.7249 27.585 65.7361 27.5371 65.7361C27.4106 65.7361 27.2874 65.659 27.2293 65.5268ZM26.6956 64.1401C26.6306 63.9493 26.723 63.7403 26.9009 63.6706C27.0788 63.6007 27.2737 63.6998 27.3388 63.8906C27.4038 64.0813 27.3114 64.2906 27.1336 64.3603C27.0925 64.375 27.0549 64.3823 27.0171 64.3823C26.877 64.3823 26.7435 64.2906 26.6956 64.1401ZM26.2817 62.7056C26.2373 62.5112 26.3467 62.3093 26.5314 62.2617C26.7128 62.2104 26.9009 62.3278 26.9453 62.5259C26.9932 62.7203 26.8838 62.9222 26.6991 62.9734C26.6717 62.9807 26.6443 62.9845 26.6136 62.9845C26.4631 62.9845 26.3228 62.8743 26.2817 62.7056ZM124.317 62.5001C124.19 62.3498 124.201 62.1187 124.341 61.9829C124.481 61.8471 124.7 61.8581 124.827 62.0123C124.95 62.1626 124.939 62.3939 124.799 62.5295C124.734 62.5918 124.652 62.6212 124.57 62.6212C124.478 62.6212 124.385 62.5809 124.317 62.5001ZM125.322 61.5096C125.189 61.3665 125.192 61.1316 125.329 60.9923C125.463 60.8492 125.678 60.8529 125.812 60.9961C125.942 61.1428 125.942 61.3739 125.805 61.517C125.74 61.5867 125.654 61.6196 125.565 61.6196C125.476 61.6196 125.391 61.5829 125.322 61.5096ZM26.0081 61.2345C25.9807 61.0326 26.1107 60.8456 26.2954 60.82C26.4836 60.7868 26.658 60.9263 26.6854 61.1281C26.7128 61.3262 26.5827 61.5132 26.3946 61.5426C26.3776 61.5464 26.3639 61.5464 26.3467 61.5464C26.1791 61.5464 26.032 61.4179 26.0081 61.2345ZM126.29 60.4749C126.15 60.3356 126.143 60.1045 126.273 59.9578C126.403 59.8073 126.619 59.7999 126.756 59.9393C126.896 60.0789 126.903 60.31 126.773 60.4604C126.704 60.5375 126.616 60.574 126.523 60.574C126.438 60.574 126.356 60.541 126.29 60.4749ZM25.8782 59.7376C25.8713 59.5359 26.0183 59.3634 26.2065 59.356C26.3946 59.3487 26.5555 59.5065 26.5623 59.7082C26.5692 59.9137 26.422 60.0824 26.2339 60.0898H26.2202C26.0355 60.0898 25.885 59.9357 25.8782 59.7376ZM127.214 59.3963C127.071 59.2643 127.057 59.0332 127.18 58.8792C127.303 58.7251 127.518 58.7104 127.662 58.8424C127.806 58.9744 127.82 59.2055 127.697 59.3598C127.628 59.4442 127.532 59.488 127.437 59.488C127.358 59.488 127.279 59.4588 127.214 59.3963ZM26.2167 58.626C26.0287 58.6114 25.885 58.4352 25.8985 58.2334C25.9122 58.0316 26.0731 57.8776 26.2612 57.8923C26.4494 57.9068 26.593 58.083 26.5794 58.2848C26.5692 58.4756 26.4185 58.626 26.2406 58.626H26.2167ZM128.097 58.281C127.95 58.1528 127.926 57.9215 128.045 57.7638C128.162 57.606 128.377 57.5804 128.524 57.7051C128.671 57.8335 128.695 58.061 128.579 58.2224C128.511 58.3141 128.411 58.3582 128.312 58.3582C128.237 58.3582 128.162 58.3324 128.097 58.281ZM128.938 57.1254C128.788 57.0043 128.753 56.7732 128.866 56.6118C128.976 56.4466 129.191 56.4137 129.342 56.531C129.496 56.6521 129.53 56.8834 129.417 57.0448C129.349 57.1438 129.246 57.1951 129.14 57.1951C129.071 57.1951 129 57.173 128.938 57.1254ZM26.3398 57.1659C26.1551 57.1327 26.0287 56.9457 26.0594 56.7438C26.0901 56.5457 26.2647 56.4101 26.4527 56.443C26.6375 56.476 26.7641 56.6632 26.7334 56.8649C26.706 57.0448 26.5623 57.173 26.3981 57.173C26.3776 57.173 26.3604 57.1695 26.3398 57.1659ZM129.735 55.933C129.578 55.8193 129.537 55.592 129.643 55.4268C129.749 55.258 129.961 55.214 130.118 55.3241C130.276 55.4377 130.317 55.6652 130.211 55.834C130.146 55.9404 130.036 55.9954 129.927 55.9954C129.862 55.9954 129.793 55.9771 129.735 55.933ZM26.593 55.7276C26.4083 55.6763 26.2989 55.4782 26.3467 55.2801C26.3913 55.0855 26.5794 54.9646 26.7606 55.0159C26.9453 55.0672 27.0549 55.2654 27.0103 55.4635C26.9694 55.6285 26.8326 55.7387 26.6786 55.7387C26.6512 55.7387 26.6204 55.7349 26.593 55.7276ZM130.488 54.7113C130.327 54.6049 130.276 54.3776 130.375 54.2051C130.474 54.0327 130.686 53.9813 130.847 54.0877C131.008 54.1941 131.059 54.4179 130.96 54.5904C130.895 54.704 130.782 54.7665 130.666 54.7665C130.604 54.7665 130.543 54.748 130.488 54.7113ZM26.9557 54.3152C26.7778 54.2491 26.6819 54.0437 26.7402 53.8493C26.8017 53.6585 26.9968 53.5557 27.1746 53.6218C27.3523 53.6841 27.4482 53.8932 27.3901 54.0839C27.3421 54.238 27.2087 54.3335 27.0651 54.3335C27.0275 54.3335 26.9932 54.3298 26.9557 54.3152ZM131.192 53.4566C131.028 53.3576 130.97 53.1338 131.062 52.9577C131.155 52.7816 131.363 52.7193 131.528 52.8183C131.695 52.9174 131.754 53.1411 131.661 53.3172C131.596 53.4384 131.48 53.5043 131.36 53.5043C131.305 53.5043 131.247 53.4898 131.192 53.4566ZM27.414 52.9357C27.2396 52.8587 27.1541 52.6458 27.2259 52.4588C27.2977 52.268 27.4961 52.1799 27.6705 52.2569C27.8451 52.3339 27.9306 52.5468 27.8588 52.734C27.804 52.8769 27.6774 52.965 27.5406 52.965C27.4995 52.965 27.4551 52.954 27.414 52.9357ZM131.853 52.1726C131.685 52.0808 131.62 51.8571 131.706 51.6772C131.791 51.4975 131.997 51.4279 132.164 51.5196C132.332 51.6113 132.4 51.8351 132.315 52.0149C132.253 52.1396 132.133 52.213 132.01 52.213C131.955 52.213 131.904 52.2019 131.853 52.1726ZM27.9477 51.5855C27.7766 51.5011 27.7013 51.2812 27.7835 51.1013C27.8621 50.9179 28.0674 50.8372 28.2385 50.9216C28.4095 51.0096 28.4813 51.2298 28.4026 51.4132C28.3445 51.5452 28.2212 51.6222 28.0913 51.6222C28.0434 51.6222 27.9956 51.6113 27.9477 51.5855ZM132.465 50.8629C132.294 50.7785 132.219 50.5583 132.298 50.3749H132.301C132.379 50.1915 132.581 50.1107 132.752 50.1988C132.923 50.2832 132.999 50.4996 132.92 50.683C132.862 50.8188 132.739 50.8958 132.609 50.8958C132.561 50.8958 132.513 50.8849 132.465 50.8629ZM28.5394 50.2685C28.3719 50.1767 28.3068 49.953 28.3958 49.7731C28.4813 49.5935 28.6899 49.5238 28.8576 49.6191C29.0252 49.7108 29.0901 49.9346 29.0012 50.1144C28.9396 50.2391 28.8234 50.3088 28.7003 50.3088C28.6455 50.3088 28.5907 50.2979 28.5394 50.2685ZM133.029 49.5274C132.855 49.4504 132.773 49.2339 132.845 49.0468C132.916 48.8597 133.118 48.7716 133.293 48.8524C133.464 48.9294 133.55 49.1422 133.474 49.3293C133.419 49.4724 133.293 49.5568 133.159 49.5568C133.115 49.5568 133.07 49.5458 133.029 49.5274ZM29.1825 48.9771C29.0183 48.8744 28.9602 48.6505 29.0492 48.4744C29.1416 48.2983 29.3502 48.236 29.5177 48.335C29.6819 48.4341 29.7402 48.6578 29.6478 48.8339C29.5862 48.955 29.47 49.0211 29.3502 49.0211C29.292 49.0211 29.2337 49.0064 29.1825 48.9771ZM133.543 48.17C133.365 48.1002 133.276 47.8875 133.341 47.6968C133.406 47.5095 133.604 47.4105 133.782 47.4839C133.96 47.5536 134.049 47.7627 133.984 47.9535C133.932 48.1039 133.799 48.1919 133.662 48.1919C133.621 48.1919 133.58 48.1846 133.543 48.17ZM29.8564 47.7003C29.6956 47.5977 29.641 47.3738 29.7367 47.1977C29.8324 47.0253 30.0412 46.9666 30.2054 47.0694C30.3661 47.1721 30.4208 47.3958 30.3251 47.5719C30.26 47.6856 30.1472 47.7518 30.0308 47.7518C29.9727 47.7518 29.9112 47.737 29.8564 47.7003ZM134.008 46.7905C133.826 46.7281 133.727 46.5191 133.789 46.3283C133.847 46.1375 134.039 46.0311 134.22 46.0935C134.398 46.1595 134.497 46.3649 134.439 46.5556C134.391 46.7135 134.257 46.8088 134.114 46.8088C134.076 46.8088 134.042 46.8052 134.008 46.7905ZM30.5543 46.4419C30.3934 46.3357 30.3422 46.1082 30.4414 45.9356C30.5371 45.7633 30.7492 45.7081 30.9101 45.8145C31.0707 45.9174 31.122 46.1449 31.023 46.3172H31.0263C30.9613 46.431 30.8484 46.4933 30.7322 46.4933C30.6705 46.4933 30.6089 46.475 30.5543 46.4419ZM134.418 45.3964C134.237 45.3413 134.131 45.136 134.182 44.9414C134.234 44.747 134.425 44.6333 134.607 44.6883C134.788 44.7433 134.894 44.9452 134.842 45.1433C134.798 45.3047 134.661 45.4073 134.514 45.4073C134.483 45.4073 134.449 45.4038 134.418 45.3964ZM31.2658 45.1872C31.105 45.0808 31.0537 44.857 31.1529 44.6847C31.2486 44.5122 31.4608 44.4572 31.6216 44.5599C31.7823 44.6663 31.8335 44.8938 31.7343 45.0661C31.6694 45.1798 31.5565 45.2424 31.4437 45.2424C31.3821 45.2424 31.3204 45.2239 31.2658 45.1872ZM134.781 43.9839C134.596 43.9363 134.483 43.7381 134.528 43.54C134.572 43.3419 134.757 43.2208 134.942 43.2685C135.123 43.3163 135.236 43.5142 135.191 43.7123C135.154 43.8811 135.013 43.9913 134.859 43.9913C134.832 43.9913 134.805 43.9875 134.781 43.9839ZM31.9772 43.9363C31.8165 43.8298 31.7652 43.6059 31.8609 43.4336C31.9568 43.2575 32.1688 43.2025 32.3296 43.3089C32.4938 43.4116 32.5451 43.6391 32.4459 43.8114C32.3809 43.9252 32.268 43.9875 32.1551 43.9875C32.0936 43.9875 32.032 43.9728 31.9772 43.9363ZM32.6819 42.6814C32.5177 42.5788 32.4631 42.3513 32.5588 42.1789C32.6512 42.0028 32.8633 41.9441 33.024 42.0467C33.1882 42.1496 33.2429 42.3733 33.1472 42.5458V42.5494C33.0856 42.6631 32.9693 42.7292 32.8529 42.7292C32.7948 42.7292 32.7333 42.7145 32.6819 42.6814ZM135.085 42.5532C134.9 42.5127 134.781 42.3219 134.819 42.1239C134.856 41.9258 135.034 41.7936 135.222 41.8341C135.407 41.8744 135.526 42.0687 135.489 42.2669C135.458 42.4394 135.314 42.5605 135.154 42.5605C135.133 42.5605 135.109 42.5605 135.085 42.5532ZM33.366 41.412C33.1985 41.3094 33.1404 41.0892 33.2361 40.9131C33.3284 40.7334 33.5371 40.6709 33.7013 40.7738C33.8655 40.8728 33.9238 41.0965 33.8314 41.2726C33.7662 41.3902 33.65 41.4599 33.5302 41.4599C33.4756 41.4599 33.4175 41.4451 33.366 41.412ZM135.342 41.115C135.154 41.0819 135.027 40.8948 135.058 40.6967C135.085 40.4948 135.26 40.3592 135.448 40.3884C135.633 40.4216 135.759 40.6086 135.732 40.8105C135.705 40.9902 135.561 41.1186 135.393 41.1186C135.376 41.1186 135.359 41.1186 135.342 41.115ZM34.0297 40.1317C33.8655 40.0362 33.804 39.8125 33.8964 39.6328C33.9852 39.4567 34.1938 39.3906 34.3582 39.4897C34.5257 39.585 34.5873 39.8089 34.495 39.985C34.4333 40.1061 34.3171 40.1758 34.1938 40.1758C34.1392 40.1758 34.0844 40.1611 34.0297 40.1317ZM135.54 39.6658C135.352 39.6402 135.215 39.4603 135.239 39.2586C135.26 39.0567 135.431 38.9137 135.619 38.9356C135.804 38.9577 135.94 39.1411 135.917 39.343C135.896 39.53 135.749 39.6658 135.578 39.6658H135.54ZM34.6831 38.8439C34.5155 38.7486 34.4539 38.5248 34.5428 38.3488C34.6318 38.1689 34.8371 38.1028 35.0046 38.1983C35.1723 38.2936 35.2338 38.5137 35.1449 38.6936C35.0833 38.8183 34.967 38.8879 34.8439 38.8879C34.7891 38.8879 34.7343 38.8733 34.6831 38.8439ZM135.68 38.2056C135.492 38.1909 135.352 38.0184 135.366 37.8131C135.379 37.6112 135.544 37.4608 135.732 37.4754C135.92 37.4901 136.06 37.6662 136.047 37.8681C136.033 38.0625 135.882 38.2092 135.708 38.2092C135.698 38.2092 135.691 38.2092 135.68 38.2056ZM35.3228 37.5489C35.1551 37.4572 35.0901 37.2334 35.1791 37.0536C35.2647 36.8739 35.4733 36.8042 35.641 36.8995C35.8085 36.9948 35.8735 37.215 35.7846 37.3948C35.723 37.5195 35.6032 37.5929 35.4801 37.5929C35.4289 37.5929 35.3741 37.5783 35.3228 37.5489ZM135.766 36.7455C135.578 36.7381 135.431 36.5694 135.434 36.3675C135.441 36.1658 135.598 36.0044 135.786 36.0117C135.978 36.019 136.125 36.1878 136.118 36.3895C136.115 36.5876 135.961 36.7455 135.776 36.7455H135.766ZM35.9556 36.2501C35.788 36.1584 35.7196 35.9347 35.8052 35.7548C35.894 35.5751 36.0993 35.5055 36.2668 35.5972C36.4345 35.6889 36.4995 35.9126 36.414 36.0923C36.3558 36.2172 36.2361 36.2904 36.1095 36.2904C36.0582 36.2904 36.0034 36.2757 35.9556 36.2501ZM135.448 34.9184C135.448 34.7129 135.598 34.5478 135.786 34.5442C135.975 34.5442 136.132 34.7056 136.132 34.9073C136.135 35.1092 135.985 35.2779 135.797 35.2815H135.79C135.605 35.2815 135.451 35.1165 135.448 34.9184ZM36.5782 34.9478C36.4106 34.8561 36.3422 34.6321 36.4277 34.4525C36.5132 34.2726 36.7218 34.1993 36.8895 34.291C37.057 34.3864 37.1255 34.6065 37.04 34.7864C36.9784 34.9146 36.8586 34.9881 36.7322 34.9881C36.6807 34.9881 36.6261 34.9734 36.5782 34.9478ZM135.404 33.4692C135.39 33.2675 135.537 33.095 135.725 33.0802C135.913 33.0693 136.074 33.2234 136.084 33.4251C136.094 33.627 135.951 33.8031 135.763 33.814H135.742C135.564 33.814 135.414 33.6637 135.404 33.4692ZM37.2007 33.6417C37.0297 33.55 36.9647 33.3298 37.0502 33.1464C37.1357 32.9665 37.341 32.8968 37.5087 32.9885C37.6762 33.0802 37.7447 33.3004 37.6592 33.4803C37.5975 33.6086 37.4778 33.682 37.3547 33.682C37.3034 33.682 37.2486 33.6673 37.2007 33.6417ZM37.8198 32.3356C37.6523 32.2439 37.5839 32.0201 37.6694 31.8403C37.7549 31.6606 37.9635 31.5907 38.1312 31.6824C38.2987 31.7742 38.3639 31.9943 38.2784 32.1742C38.2201 32.3026 38.097 32.3759 37.9738 32.3759C37.9226 32.3759 37.8678 32.3612 37.8198 32.3356ZM135.287 32.0311C135.267 31.8293 135.404 31.6459 135.592 31.6239C135.78 31.6018 135.947 31.745 135.968 31.9467C135.988 32.1484 135.855 32.3318 135.667 32.3539H135.629C135.455 32.3539 135.308 32.2182 135.287 32.0311ZM38.4425 31.0295C38.2715 30.9378 38.2065 30.7176 38.292 30.5379C38.3809 30.3581 38.5862 30.2848 38.7537 30.3801C38.9214 30.4718 38.9897 30.692 38.9009 30.8716C38.8392 31.0001 38.7196 31.0698 38.5964 31.0698C38.5451 31.0698 38.4903 31.0589 38.4425 31.0295ZM135.099 30.6003C135.065 30.4021 135.188 30.2113 135.376 30.1746C135.561 30.1417 135.739 30.2737 135.773 30.4756C135.804 30.6735 135.68 30.8643 135.492 30.8974C135.475 30.901 135.455 30.9048 135.434 30.9048C135.27 30.9048 135.126 30.7799 135.099 30.6003ZM39.0684 29.7271C38.9009 29.6354 38.8359 29.4115 38.9214 29.2318C39.0103 29.052 39.2155 28.986 39.3832 29.0778C39.5508 29.173 39.6157 29.3932 39.5302 29.5729C39.4687 29.6977 39.349 29.771 39.2259 29.771C39.1745 29.771 39.1198 29.7563 39.0684 29.7271ZM134.819 29.1951C134.774 28.997 134.883 28.7988 135.068 28.7512C135.25 28.6998 135.438 28.8209 135.482 29.0153C135.526 29.2134 135.417 29.4115 135.232 29.4593C135.205 29.4667 135.178 29.4703 135.15 29.4703C134.996 29.4703 134.856 29.3603 134.819 29.1951ZM39.7013 28.432C39.5371 28.3367 39.4721 28.1127 39.5611 27.9331C39.65 27.757 39.8586 27.6873 40.0228 27.7826C40.1905 27.8781 40.2554 28.1018 40.1666 28.2815C40.105 28.4026 39.9852 28.476 39.8621 28.476C39.8108 28.476 39.7525 28.4613 39.7013 28.432ZM134.442 27.8157C134.381 27.6249 134.477 27.4157 134.654 27.3534C134.836 27.2873 135.027 27.3901 135.089 27.5809C135.15 27.7716 135.054 27.9807 134.877 28.0468C134.839 28.0615 134.801 28.0689 134.764 28.0689C134.624 28.0689 134.49 27.9698 134.442 27.8157ZM101.723 27.7055C101.531 27.702 101.381 27.5368 101.381 27.3351C101.384 27.1332 101.538 26.9682 101.726 26.9718C101.914 26.9718 102.068 27.1369 102.065 27.3387C102.065 27.5441 101.911 27.7055 101.723 27.7055ZM102.749 27.3204C102.739 27.1185 102.882 26.9462 103.07 26.9351C103.259 26.9242 103.42 27.0782 103.43 27.2799C103.443 27.4818 103.296 27.6541 103.108 27.6653C103.101 27.6688 103.095 27.6688 103.088 27.6688C102.91 27.6688 102.759 27.5148 102.749 27.3204ZM100.337 27.6505C100.149 27.6359 100.006 27.4634 100.019 27.2617C100.03 27.0562 100.194 26.9057 100.382 26.9168V26.9204C100.57 26.9315 100.714 27.1076 100.7 27.3093C100.686 27.5038 100.539 27.6505 100.361 27.6505H100.337ZM104.11 27.2176C104.086 27.0159 104.223 26.8324 104.408 26.8068V26.8104C104.596 26.7848 104.767 26.9277 104.791 27.1296C104.812 27.3313 104.678 27.5112 104.49 27.5368C104.477 27.5368 104.463 27.5406 104.449 27.5406C104.278 27.5406 104.131 27.401 104.11 27.2176ZM98.9553 27.5074C98.7672 27.4818 98.6373 27.2984 98.658 27.0965C98.6817 26.8948 98.8527 26.7554 99.0408 26.781C99.2292 26.8068 99.3625 26.9902 99.3384 27.1882C99.3147 27.3754 99.1674 27.5112 99 27.5112C98.9827 27.5112 98.969 27.5112 98.9553 27.5074ZM105.465 27.0194C105.431 26.8177 105.551 26.627 105.739 26.5902C105.923 26.5535 106.101 26.6857 106.135 26.8838C106.17 27.082 106.05 27.2726 105.862 27.313C105.842 27.3166 105.821 27.3166 105.8 27.3166C105.639 27.3166 105.496 27.1955 105.465 27.0194ZM97.587 27.2763C97.3989 27.2396 97.2793 27.0452 97.3134 26.8471C97.3478 26.649 97.5255 26.517 97.7136 26.5535C97.8983 26.594 98.0216 26.7848 97.9838 26.9829C97.9531 27.159 97.8094 27.2837 97.6488 27.2837C97.6281 27.2837 97.6077 27.2799 97.587 27.2763ZM40.3478 27.1405C40.1801 27.0415 40.122 26.8177 40.211 26.6416C40.3034 26.4656 40.512 26.3995 40.6762 26.4949C40.8404 26.594 40.902 26.814 40.813 26.9938C40.7515 27.1149 40.6318 27.1846 40.512 27.1846C40.4572 27.1846 40.3991 27.1699 40.3478 27.1405ZM106.803 26.726C106.755 26.5279 106.868 26.3298 107.049 26.2784C107.234 26.2307 107.418 26.3482 107.466 26.5426C107.514 26.7407 107.401 26.9388 107.22 26.9902C107.192 26.9974 107.162 27.0012 107.134 27.0012C106.98 27.0012 106.844 26.8912 106.803 26.726ZM96.2324 26.9571C96.0476 26.9095 95.9384 26.7113 95.9828 26.5132C96.0273 26.3151 96.2153 26.1977 96.3967 26.2454C96.5815 26.2968 96.6944 26.4949 96.6463 26.6931C96.6089 26.8581 96.4685 26.9682 96.3145 26.9682C96.2872 26.9682 96.2598 26.9644 96.2324 26.9571ZM133.956 26.4838C133.881 26.2968 133.96 26.0802 134.131 25.9996C134.306 25.9188 134.507 25.9996 134.582 26.1866C134.658 26.3701 134.582 26.5866 134.408 26.671C134.364 26.6931 134.316 26.7004 134.271 26.7004C134.138 26.7004 134.015 26.6196 133.956 26.4838ZM108.119 26.3409C108.061 26.1463 108.157 25.9373 108.339 25.8749C108.516 25.8124 108.711 25.9152 108.77 26.1096C108.828 26.3004 108.732 26.5096 108.554 26.572C108.516 26.5866 108.479 26.5902 108.444 26.5902C108.301 26.5902 108.168 26.4912 108.119 26.3409ZM94.8985 26.5535C94.7171 26.4949 94.6179 26.2895 94.6727 26.0949C94.7308 25.9005 94.9222 25.7941 95.1036 25.8565C95.2816 25.9152 95.3808 26.1207 95.3261 26.3151C95.2816 26.4729 95.1447 26.572 95.001 26.572C94.967 26.572 94.9326 26.5646 94.8985 26.5535ZM93.5883 26.0693C93.4103 25.9959 93.3214 25.7832 93.3899 25.596C93.4547 25.4052 93.6531 25.3099 93.8312 25.3832C94.0089 25.4529 94.0944 25.6657 94.0296 25.8565C93.9782 26.0032 93.8482 26.0913 93.7079 26.0913C93.6668 26.0913 93.6257 26.084 93.5883 26.0693ZM109.409 25.8565C109.337 25.6694 109.423 25.4529 109.597 25.3758C109.772 25.3026 109.973 25.3905 110.042 25.5777C110.114 25.7648 110.032 25.9813 109.857 26.0584C109.813 26.0766 109.772 26.084 109.727 26.084C109.594 26.084 109.464 25.9959 109.409 25.8565ZM41.0081 25.8565C40.8404 25.7574 40.7823 25.5337 40.878 25.3576C40.9704 25.1777 41.1791 25.1154 41.3433 25.2182C41.5075 25.3173 41.5656 25.541 41.4733 25.7171C41.4083 25.8344 41.2919 25.9041 41.1756 25.9041C41.1175 25.9041 41.0594 25.8896 41.0081 25.8565ZM92.3055 25.4969C92.1345 25.4163 92.0593 25.1998 92.1345 25.0127C92.213 24.8293 92.4151 24.7449 92.5895 24.8293C92.7605 24.9137 92.8357 25.1301 92.7605 25.3135C92.7024 25.4493 92.5791 25.5299 92.4459 25.5299C92.4014 25.5299 92.3533 25.519 92.3055 25.4969ZM110.668 25.2841C110.586 25.1007 110.661 24.8807 110.832 24.7926C111 24.7082 111.205 24.7852 111.287 24.9687C111.366 25.1521 111.294 25.3723 111.123 25.4567C111.075 25.4823 111.027 25.4934 110.976 25.4934C110.849 25.4934 110.726 25.4163 110.668 25.2841ZM133.358 25.2108C133.262 25.0348 133.32 24.8108 133.484 24.7082C133.648 24.6091 133.857 24.6679 133.953 24.844H133.95C134.045 25.0201 133.987 25.2438 133.823 25.3465C133.772 25.3796 133.714 25.3943 133.655 25.3943C133.536 25.3943 133.419 25.3282 133.358 25.2108ZM91.0602 24.8476C90.8928 24.7522 90.8277 24.5321 90.9165 24.3522C91.0057 24.1726 91.2108 24.1029 91.3785 24.1982C91.5462 24.2937 91.611 24.5138 91.5222 24.6935C91.4607 24.8182 91.3408 24.8879 91.2178 24.8879C91.1664 24.8879 91.1116 24.877 91.0602 24.8476ZM111.896 24.6421C111.81 24.4624 111.876 24.2423 112.043 24.1469C112.211 24.0552 112.416 24.1249 112.505 24.3046C112.59 24.4845 112.525 24.7044 112.358 24.7999C112.307 24.8255 112.252 24.8402 112.201 24.8402C112.077 24.8402 111.958 24.767 111.896 24.6421ZM41.6819 24.5835C41.5177 24.4807 41.4629 24.2532 41.5588 24.0809C41.6545 23.9048 41.8633 23.846 42.0275 23.9488C42.1881 24.0479 42.2429 24.2752 42.1506 24.4513C42.0856 24.5651 41.9727 24.6312 41.8529 24.6312C41.7948 24.6312 41.7367 24.6165 41.6819 24.5835ZM89.8529 24.1176C89.6885 24.0112 89.6374 23.7873 89.7366 23.6112C89.8359 23.4388 90.0443 23.3838 90.205 23.4902C90.3693 23.5929 90.4208 23.8204 90.3216 23.9927C90.2564 24.1065 90.1435 24.1688 90.0272 24.1688C89.9691 24.1688 89.9077 24.1541 89.8529 24.1176ZM132.636 24.0148C132.523 23.8498 132.557 23.6223 132.711 23.5012C132.862 23.3801 133.077 23.4168 133.19 23.582C133.3 23.7469 133.266 23.9744 133.115 24.0955C133.053 24.1432 132.982 24.1652 132.913 24.1652C132.807 24.1652 132.701 24.1138 132.636 24.0148ZM113.107 23.9598C113.015 23.7801 113.076 23.5562 113.241 23.4608C113.405 23.3618 113.613 23.4277 113.706 23.6076C113.795 23.7837 113.733 24.0074 113.569 24.1029C113.517 24.1359 113.459 24.1469 113.405 24.1469C113.285 24.1469 113.165 24.0809 113.107 23.9598ZM114.301 23.2516C114.209 23.072 114.267 22.8482 114.434 22.7527C114.598 22.6536 114.807 22.716 114.899 22.8921C114.992 23.072 114.93 23.2921 114.766 23.3912C114.715 23.4241 114.657 23.4388 114.598 23.4388C114.479 23.4388 114.362 23.3691 114.301 23.2516ZM42.3764 23.3177C42.2122 23.2151 42.1608 22.9876 42.26 22.8151C42.3592 22.6427 42.568 22.5877 42.7286 22.694C42.8928 22.7968 42.9441 23.0243 42.8449 23.1966C42.7799 23.3104 42.667 23.3727 42.5508 23.3727C42.4927 23.3727 42.431 23.3544 42.3764 23.3177ZM88.6897 23.3068C88.5324 23.1893 88.4946 22.9618 88.6042 22.7968C88.7104 22.628 88.9222 22.5877 89.0799 22.7051C89.2335 22.8188 89.2713 23.0463 89.1654 23.2151C89.0969 23.3177 88.9907 23.3727 88.8848 23.3727C88.8163 23.3727 88.7478 23.3507 88.6897 23.3068ZM131.794 22.9141C131.668 22.7638 131.678 22.5325 131.815 22.3932C131.955 22.2574 132.171 22.2685 132.301 22.4152C132.427 22.5657 132.417 22.7968 132.277 22.9361C132.212 22.9985 132.13 23.0316 132.048 23.0316C131.955 23.0316 131.863 22.9911 131.794 22.9141ZM115.495 22.5363C115.402 22.3602 115.464 22.1363 115.631 22.041C115.796 21.9419 116.005 22.008 116.093 22.1877C116.186 22.3638 116.124 22.5877 115.96 22.683C115.905 22.716 115.851 22.7271 115.796 22.7271C115.672 22.7271 115.556 22.661 115.495 22.5363ZM87.5746 22.4188C87.4276 22.2905 87.4036 22.0593 87.5198 21.9016C87.6394 21.7438 87.8516 21.7182 88.0022 21.8429C88.1492 21.9675 88.1732 22.1988 88.057 22.3602C87.9885 22.4482 87.8893 22.496 87.7867 22.496C87.7149 22.496 87.6394 22.4702 87.5746 22.4188ZM43.0878 22.0704C42.9304 21.9602 42.8827 21.7365 42.9852 21.5641C43.0844 21.3954 43.2966 21.344 43.4572 21.454C43.6181 21.5604 43.6625 21.7879 43.5633 21.9566C43.4983 22.0666 43.3854 22.1291 43.2725 22.1291C43.211 22.1291 43.146 22.1107 43.0878 22.0704ZM116.695 21.8393C116.61 21.6632 116.675 21.4393 116.842 21.3476C117.01 21.2558 117.219 21.3255 117.304 21.5054C117.39 21.6851 117.325 21.9052 117.157 22.0007C117.106 22.0263 117.054 22.041 117 22.041C116.877 22.041 116.757 21.9675 116.695 21.8393ZM130.844 21.9272C130.7 21.7952 130.683 21.5641 130.806 21.4099C130.926 21.2558 131.141 21.2376 131.285 21.3696C131.429 21.5016 131.449 21.7329 131.326 21.8869C131.258 21.9713 131.162 22.0154 131.066 22.0154C130.987 22.0154 130.908 21.986 130.844 21.9272ZM86.5177 21.454C86.3773 21.3146 86.367 21.0835 86.4936 20.933C86.6202 20.7863 86.839 20.7752 86.976 20.911H86.9793C87.1163 21.0468 87.1263 21.2779 87 21.4283C86.9349 21.509 86.8427 21.5495 86.7468 21.5495C86.6647 21.5495 86.5825 21.5163 86.5177 21.454ZM117.917 21.1826C117.838 20.9991 117.91 20.779 118.081 20.6946C118.252 20.6064 118.457 20.6873 118.536 20.8707C118.618 21.0541 118.543 21.2743 118.372 21.3586C118.324 21.3807 118.276 21.3916 118.228 21.3916C118.098 21.3916 117.975 21.3146 117.917 21.1826ZM129.783 21.0797C129.626 20.9697 129.581 20.7423 129.684 20.5735C129.787 20.4047 129.999 20.3533 130.156 20.4635C130.313 20.5735 130.361 20.801 130.259 20.9733C130.19 21.0797 130.081 21.1385 129.968 21.1385C129.906 21.1385 129.841 21.1202 129.783 21.0797ZM43.8302 20.8377C43.6729 20.7275 43.6318 20.5 43.7343 20.3313C43.8404 20.1625 44.0525 20.1149 44.2099 20.2287C44.3672 20.3424 44.4083 20.5699 44.3056 20.7387C44.2373 20.8451 44.1312 20.9 44.0183 20.9C43.9533 20.9 43.8884 20.8816 43.8302 20.8377ZM119.162 20.5808C119.093 20.39 119.179 20.1772 119.353 20.104C119.531 20.0305 119.73 20.1222 119.798 20.3093C119.87 20.4964 119.781 20.7093 119.606 20.7863C119.565 20.8046 119.524 20.8119 119.48 20.8119C119.346 20.8119 119.216 20.724 119.162 20.5808ZM85.5222 20.4157C85.3922 20.2689 85.3956 20.0341 85.5325 19.8947C85.6692 19.7554 85.8846 19.7589 86.0146 19.9058C86.1449 20.0526 86.1412 20.2837 86.0046 20.423C85.9394 20.4927 85.8539 20.5258 85.7684 20.5258C85.6795 20.5258 85.587 20.4891 85.5222 20.4157ZM128.63 20.401C128.459 20.3166 128.384 20.1002 128.463 19.9168C128.541 19.7333 128.743 19.6527 128.914 19.7333C129.085 19.8177 129.164 20.0378 129.085 20.2213C129.027 20.3571 128.904 20.4341 128.774 20.4341C128.726 20.4341 128.678 20.4268 128.63 20.401ZM120.441 20.0635C120.383 19.8691 120.482 19.6636 120.663 19.6013C120.845 19.539 121.036 19.6454 121.091 19.8397C121.149 20.0341 121.05 20.2396 120.872 20.3019C120.834 20.313 120.8 20.3166 120.766 20.3166C120.623 20.3166 120.486 20.2175 120.441 20.0635ZM127.399 19.9168V19.9205C127.217 19.8653 127.112 19.6599 127.163 19.4655C127.214 19.2711 127.402 19.1574 127.584 19.2124C127.765 19.2674 127.871 19.4693 127.82 19.6636C127.779 19.8251 127.642 19.9315 127.491 19.9315C127.46 19.9315 127.43 19.9279 127.399 19.9168ZM121.751 19.6454C121.707 19.4473 121.823 19.2491 122.008 19.205C122.193 19.161 122.374 19.2821 122.418 19.4802C122.459 19.6783 122.343 19.8765 122.162 19.9205C122.134 19.9279 122.11 19.9279 122.083 19.9279C121.929 19.9279 121.785 19.8141 121.751 19.6454ZM44.5964 19.6269C44.4425 19.5096 44.4048 19.2821 44.5144 19.1133C44.6238 18.9482 44.8359 18.9116 44.9932 19.0252C45.1471 19.1427 45.1813 19.3738 45.0752 19.539C45.0069 19.638 44.9009 19.693 44.7948 19.693C44.7263 19.693 44.658 19.671 44.5964 19.6269ZM123.089 19.3518C123.065 19.15 123.198 18.9666 123.386 18.9408C123.571 18.9152 123.742 19.0546 123.766 19.2565C123.79 19.4582 123.66 19.6416 123.472 19.6672C123.458 19.6672 123.441 19.671 123.427 19.671C123.256 19.671 123.113 19.5352 123.089 19.3518ZM126.113 19.6416C125.925 19.6196 125.791 19.4361 125.815 19.2344C125.835 19.0325 126.007 18.8896 126.195 18.9152C126.383 18.9408 126.516 19.1243 126.492 19.3224C126.472 19.5096 126.325 19.6454 126.154 19.6454C126.14 19.6454 126.126 19.6454 126.113 19.6416ZM124.447 19.205C124.447 18.9996 124.597 18.8344 124.786 18.8344C124.974 18.8308 125.131 18.9922 125.131 19.1977C125.134 19.3994 124.984 19.5646 124.796 19.5682H124.789C124.601 19.5682 124.45 19.4067 124.447 19.205ZM84.5952 19.3041C84.4719 19.15 84.4926 18.9189 84.6363 18.7868C84.7799 18.6583 84.9954 18.6768 85.1186 18.8344C85.2382 18.9887 85.2212 19.2197 85.0739 19.3518C85.0124 19.4067 84.9339 19.4361 84.8551 19.4361C84.7592 19.4361 84.66 19.3921 84.5952 19.3041ZM45.3934 18.4346C45.2429 18.3135 45.2122 18.0824 45.325 17.921C45.4378 17.7596 45.65 17.7266 45.804 17.8475C45.9545 17.9686 45.9852 18.1997 45.8723 18.3613C45.804 18.4566 45.7013 18.508 45.5987 18.508C45.5269 18.508 45.455 18.486 45.3934 18.4346ZM83.7366 18.1338C83.6271 17.9724 83.6578 17.7411 83.8085 17.6202C83.9621 17.5027 84.1743 17.5358 84.2872 17.6972C84.4001 17.8622 84.3693 18.0897 84.2153 18.2108C84.1539 18.2585 84.0821 18.2841 84.0136 18.2841C83.9077 18.2841 83.8048 18.2328 83.7366 18.1338ZM46.2179 17.268C46.0707 17.1432 46.0468 16.9121 46.1631 16.7507C46.2793 16.5928 46.495 16.5672 46.6455 16.6919C46.7925 16.8203 46.8165 17.0514 46.7001 17.2093C46.6318 17.301 46.5325 17.3486 46.4299 17.3486C46.358 17.3486 46.2829 17.323 46.2179 17.268ZM82.9396 16.9268C82.8334 16.7616 82.8744 16.5305 83.0284 16.4167C83.1858 16.303 83.3979 16.3471 83.5038 16.5122C83.61 16.681 83.5723 16.9083 83.415 17.022C83.3568 17.0661 83.2884 17.0882 83.2235 17.0882C83.114 17.0882 83.0044 17.0332 82.9396 16.9268ZM47.0764 16.1269C46.9328 15.9949 46.9122 15.7638 47.0353 15.6097C47.1586 15.4555 47.3741 15.4372 47.5177 15.5656C47.6613 15.6977 47.6785 15.9288 47.5588 16.0828C47.4903 16.171 47.3946 16.215 47.2954 16.215C47.2167 16.215 47.1414 16.1856 47.0764 16.1269ZM82.1799 15.705C82.074 15.5325 82.1185 15.3052 82.2758 15.195C82.4332 15.085 82.6486 15.1327 82.7515 15.3014C82.8541 15.4702 82.8096 15.6977 82.6523 15.8077C82.5938 15.8481 82.529 15.8702 82.4639 15.8702C82.3547 15.8702 82.2451 15.8114 82.1799 15.705ZM47.9658 15.0153C47.8255 14.8796 47.8153 14.6485 47.942 14.498C48.0684 14.3475 48.284 14.333 48.4242 14.4724C48.5645 14.6081 48.5782 14.8392 48.4482 14.9895C48.3832 15.0703 48.2909 15.1107 48.195 15.1107C48.113 15.1107 48.0308 15.0777 47.9658 15.0153ZM81.431 14.4797C81.3247 14.311 81.3695 14.0835 81.5268 13.9697C81.6842 13.8597 81.8963 13.9036 82.0022 14.0761C82.1048 14.2449 82.0603 14.4724 81.903 14.5824C81.8449 14.6227 81.7797 14.6447 81.7149 14.6447C81.6053 14.6447 81.4958 14.5861 81.431 14.4797ZM48.8928 13.9368C48.756 13.7972 48.7525 13.5625 48.8827 13.4194C49.0159 13.2727 49.2316 13.2689 49.3684 13.4085C49.5017 13.5514 49.5052 13.7827 49.3752 13.9294C49.3067 14.0026 49.2179 14.0394 49.1289 14.0394C49.0433 14.0394 48.9578 14.0064 48.8928 13.9368ZM80.6717 13.2689C80.5654 13.1002 80.6032 12.8727 80.7605 12.7591C80.9145 12.6416 81.13 12.6856 81.2359 12.8508C81.3421 13.0196 81.3044 13.2469 81.147 13.3606C81.0889 13.4047 81.0204 13.4267 80.9556 13.4267C80.846 13.4267 80.7398 13.3717 80.6717 13.2689ZM49.8506 12.8947C49.7206 12.748 49.7275 12.5169 49.8643 12.3775C49.9977 12.2344 50.2167 12.2417 50.3466 12.3884C50.4766 12.5351 50.4733 12.7664 50.3365 12.9058C50.268 12.9755 50.1825 13.0085 50.1003 13.0085C50.0081 13.0085 49.9191 12.9681 49.8506 12.8947ZM79.8847 12.0913C79.7684 11.9298 79.7991 11.6988 79.9498 11.5777C80.1038 11.4566 80.3159 11.4859 80.4288 11.6511H80.4321C80.5451 11.8125 80.5143 12.04 80.3637 12.1647C80.3022 12.2124 80.2267 12.238 80.1585 12.238C80.0523 12.238 79.9498 12.1867 79.8847 12.0913ZM50.8496 11.8931C50.723 11.7391 50.7367 11.508 50.8803 11.376C51.0206 11.2402 51.2361 11.2548 51.3627 11.4089C51.4858 11.5594 51.4721 11.7905 51.3318 11.9263C51.2668 11.9886 51.1848 12.018 51.1061 12.018C51.0103 12.018 50.9179 11.9739 50.8496 11.8931ZM79.0431 10.965C78.9202 10.8109 78.9372 10.5761 79.0809 10.4476C79.2245 10.3156 79.44 10.3339 79.5633 10.488C79.6862 10.6422 79.6692 10.8733 79.5255 11.0053C79.4607 11.0641 79.3819 11.0935 79.3034 11.0935C79.2075 11.0935 79.1116 11.0494 79.0431 10.965ZM51.8827 10.9356C51.7662 10.7778 51.7868 10.5467 51.9339 10.422C52.0809 10.2936 52.2965 10.3192 52.4162 10.4734C52.5359 10.6349 52.512 10.8622 52.3648 10.9906C52.2999 11.0456 52.2247 11.0714 52.1494 11.0714C52.0502 11.0714 51.951 11.0274 51.8827 10.9356ZM52.9566 10.0294C52.8438 9.86439 52.878 9.63685 53.0285 9.51578C53.1825 9.39468 53.3979 9.4314 53.5075 9.59657C53.6203 9.75796 53.5862 9.98906 53.4355 10.1066C53.374 10.1542 53.3022 10.1798 53.2337 10.1798C53.1277 10.1798 53.0251 10.1284 52.9566 10.0294ZM78.1369 9.91201C77.9999 9.76889 77.9999 9.53424 78.1335 9.39108C78.2668 9.24796 78.4822 9.24796 78.6192 9.39108C78.7525 9.53424 78.7525 9.7653 78.6192 9.90845C78.5541 9.98172 78.4652 10.0184 78.3764 10.0184C78.2909 10.0184 78.2016 9.98172 78.1369 9.91201ZM54.0684 9.1747C53.9623 9.00593 54.0069 8.77843 54.1643 8.66826C54.3216 8.55468 54.5337 8.60233 54.6396 8.77109C54.7423 8.93982 54.6979 9.16736 54.5406 9.28109C54.4823 9.32141 54.4173 9.33968 54.3523 9.33968C54.2429 9.33968 54.1334 9.28469 54.0684 9.1747ZM77.1447 8.95453C76.9977 8.82609 76.977 8.59499 77.0969 8.43717C77.2165 8.27952 77.432 8.2575 77.5793 8.38576C77.7229 8.51421 77.7467 8.7453 77.6271 8.9031C77.5586 8.99126 77.4594 9.03514 77.3602 9.03514C77.285 9.03514 77.2098 9.00953 77.1447 8.95453ZM55.2179 8.38217C55.122 8.20966 55.1733 7.98591 55.3375 7.88329C55.5017 7.77686 55.7104 7.83545 55.8061 8.01155C55.902 8.18406 55.8472 8.41155 55.683 8.51421H55.6864C55.6318 8.54734 55.5702 8.56561 55.512 8.56561C55.3922 8.56561 55.2794 8.4995 55.2179 8.38217ZM76.074 8.10327C75.92 7.98969 75.8756 7.76218 75.9819 7.59342C76.0877 7.42469 76.2999 7.3806 76.4572 7.49436C76.6146 7.60813 76.6556 7.83545 76.5494 8.00436C76.4846 8.10701 76.375 8.16579 76.2655 8.16579C76.2006 8.16579 76.1322 8.14373 76.074 8.10327ZM56.4014 7.65575C56.3159 7.47591 56.3809 7.25593 56.5484 7.16043C56.7161 7.06871 56.9214 7.13842 57.0102 7.31826C57.0958 7.49796 57.0308 7.71812 56.8631 7.81359C56.8118 7.83919 56.7605 7.8539 56.7058 7.8539C56.5827 7.8539 56.4629 7.78045 56.4014 7.65575ZM74.9349 7.36233C74.7672 7.26686 74.7057 7.0431 74.7983 6.86326C74.8871 6.68716 75.0956 6.62123 75.2599 6.71655C75.4277 6.81561 75.4891 7.03577 75.3969 7.21543C75.3351 7.33653 75.2189 7.40624 75.0956 7.40624C75.0412 7.40624 74.9864 7.39153 74.9349 7.36233ZM57.6226 6.99904C57.5439 6.81201 57.6192 6.59544 57.7936 6.51106C57.9647 6.43046 58.1664 6.51106 58.2451 6.6945C58.3238 6.88172 58.2486 7.0981 58.0741 7.18248C58.0296 7.20453 57.9817 7.21543 57.9339 7.21543C57.8038 7.21543 57.6807 7.13482 57.6226 6.99904ZM73.7343 6.73482C73.5599 6.65421 73.4811 6.4378 73.5563 6.25061C73.6318 6.06358 73.8335 5.9792 74.0079 6.0598C74.179 6.14063 74.2578 6.35701 74.1823 6.54404C74.1275 6.67982 74.0012 6.76421 73.8676 6.76421C73.8232 6.76421 73.7787 6.75327 73.7343 6.73482ZM58.8746 6.41578C58.8097 6.22497 58.8985 6.01574 59.0764 5.94247C59.2543 5.87281 59.4492 5.96808 59.5177 6.1589C59.5826 6.34608 59.4938 6.55872 59.3159 6.63217C59.2782 6.64684 59.2373 6.65421 59.1962 6.65421C59.0594 6.65421 58.9292 6.56249 58.8746 6.41578ZM72.4858 6.21763C72.3079 6.15152 72.212 5.94247 72.2736 5.7517C72.3318 5.55714 72.5267 5.45809 72.7046 5.5206C72.886 5.58653 72.9817 5.79576 72.9202 5.98654C72.8723 6.14063 72.7388 6.2359 72.5952 6.2359C72.5576 6.2359 72.5233 6.22857 72.4858 6.21763ZM60.1642 5.92402C60.1095 5.72965 60.212 5.5242 60.3899 5.46543H60.3934C60.5713 5.40687 60.7629 5.51686 60.8175 5.71138C60.8723 5.90575 60.7697 6.11124 60.5883 6.16998C60.5576 6.18091 60.5233 6.1845 60.4891 6.1845C60.3422 6.1845 60.2087 6.08185 60.1642 5.92402ZM71.203 5.81029C71.0183 5.75903 70.9087 5.56092 70.9533 5.36277C71.001 5.16826 71.1858 5.04733 71.3705 5.09855C71.5519 5.14639 71.6647 5.3481 71.6169 5.54247C71.5792 5.71138 71.439 5.82137 71.285 5.82137C71.2576 5.82137 71.2302 5.81763 71.203 5.81029ZM61.4778 5.5242C61.4333 5.32605 61.5496 5.12794 61.7308 5.08387C61.9156 5.03622 62.1003 5.15732 62.1414 5.35544C62.1858 5.55358 62.0729 5.7517 61.8883 5.79576C61.8609 5.8031 61.8369 5.80669 61.8097 5.80669C61.6557 5.80669 61.512 5.69293 61.4778 5.5242ZM62.8118 5.21232C62.7811 5.01417 62.9077 4.82339 63.0924 4.79045C63.2805 4.75746 63.4549 4.8931 63.4858 5.09121C63.52 5.2931 63.3934 5.48014 63.2052 5.51327C63.1881 5.51686 63.1676 5.5206 63.1505 5.5206C62.9864 5.5206 62.8392 5.39216 62.8118 5.21232ZM69.8893 5.50949C69.7046 5.47654 69.5815 5.28576 69.6122 5.08762C69.6465 4.88591 69.821 4.75372 70.0091 4.78685C70.1938 4.82339 70.3204 5.01061 70.2862 5.21232C70.2588 5.39216 70.1116 5.51686 69.9509 5.51686C69.9304 5.51686 69.9099 5.51327 69.8893 5.50949ZM64.1631 4.9959C64.1425 4.79419 64.2829 4.61434 64.4674 4.59229H64.4709C64.6556 4.57402 64.8232 4.72074 64.8437 4.92245C64.8643 5.12434 64.7275 5.30404 64.5394 5.32249C64.5257 5.32249 64.5154 5.32605 64.5016 5.32605C64.3306 5.32605 64.1801 5.18293 64.1631 4.9959ZM68.5621 5.31515C68.374 5.2931 68.2371 5.11326 68.2543 4.91511C68.2748 4.70966 68.4423 4.56668 68.6306 4.58496C68.8186 4.60701 68.9554 4.78685 68.9349 4.98482C68.9179 5.17559 68.7707 5.31871 68.5963 5.31871C68.586 5.31871 68.5723 5.31515 68.5621 5.31515ZM65.5245 4.87123C65.5177 4.66934 65.6647 4.49702 65.8529 4.48968C66.0445 4.4823 66.2018 4.64373 66.2087 4.84544C66.2155 5.04733 66.0684 5.21605 65.8803 5.22343H65.8666C65.6852 5.22343 65.5314 5.06934 65.5245 4.87123ZM67.2212 5.21965C67.033 5.21605 66.886 5.04355 66.8928 4.84184C66.8962 4.63995 67.0535 4.4823 67.2451 4.4859C67.4333 4.49324 67.5803 4.662 67.5735 4.86389C67.5701 5.06201 67.4161 5.21965 67.2349 5.21965H67.2212Z" fill="#D0CDC4"/>
<path d="M123.503 63.6079C123.479 63.6079 123.459 63.6043 123.435 63.6006C123.414 63.597 123.394 63.5897 123.373 63.5787C123.353 63.5714 123.332 63.5603 123.311 63.5456C123.294 63.5309 123.277 63.5162 123.26 63.5015C123.199 63.4318 123.161 63.3401 123.161 63.241C123.161 63.1934 123.171 63.1457 123.189 63.1017C123.206 63.054 123.229 63.0173 123.26 62.9806C123.277 62.9659 123.294 62.9476 123.311 62.9367C123.332 62.922 123.353 62.9109 123.373 62.9036C123.394 62.8926 123.414 62.8853 123.435 62.8815C123.548 62.8595 123.664 62.8962 123.746 62.9806C123.808 63.0503 123.845 63.1457 123.845 63.241C123.845 63.3401 123.808 63.4318 123.746 63.5015C123.681 63.5676 123.592 63.6079 123.503 63.6079Z" fill="#D0CDC4"/>
</g>
<path d="M119.28 79.0999C120.773 70.3504 124.865 62.0608 130.901 55.554C131.092 64.7523 128.65 73.8626 123.224 81.2931C121.689 80.7855 120.228 80.4099 119.28 79.0999Z" fill="#FFD6E2"/>
<path d="M123.153 29.5696H76.7186C71.9768 29.5696 68.1328 33.4136 68.1328 38.1553V135.718C68.1328 140.459 71.9768 144.303 76.7186 144.303H123.153C127.895 144.303 131.739 140.459 131.739 135.718V38.1553C131.739 33.4136 127.895 29.5696 123.153 29.5696Z" fill="#5D0F36"/>
<path d="M120.584 29.5696H74.1502C69.4084 29.5696 65.5645 33.4136 65.5645 38.1553V135.718C65.5645 140.459 69.4084 144.303 74.1502 144.303H120.584C125.326 144.303 129.17 140.459 129.17 135.718V38.1553C129.17 33.4136 125.326 29.5696 120.584 29.5696Z" fill="#D61750"/>
<path d="M120.585 32.1379H111.927C111.927 35.6946 109.044 38.5778 105.487 38.5778H88.8255C85.5021 38.5778 82.8079 35.8836 82.8079 32.5602C82.8079 32.327 82.6188 32.1379 82.3856 32.1379H74.1504C70.827 32.1379 68.1328 34.8321 68.1328 38.1556V135.718C68.1328 139.042 70.827 141.736 74.1504 141.736H120.585C123.908 141.736 126.602 139.042 126.602 135.718V38.1556C126.602 34.8321 123.908 32.1379 120.585 32.1379Z" fill="#FFB0C8"/>
<path d="M72.9691 36.7371H72.3818V37.3694H72.9691V36.7371Z" fill="#D61750"/>
<path d="M74.2279 36.1497H73.6406V37.3693H74.2279V36.1497Z" fill="#D61750"/>
<path d="M75.4866 35.4722H74.8994V37.3694H75.4866V35.4722Z" fill="#D61750"/>
<path d="M76.7445 34.5234H76.1572V37.3692H76.7445V34.5234Z" fill="#D61750"/>
<path d="M118.844 49.6448H75.6454C74.1871 49.6448 73.0049 50.827 73.0049 52.2853V56.6637C73.0049 58.122 74.1871 59.3042 75.6454 59.3042H118.844C120.302 59.3042 121.484 58.122 121.484 56.6637V52.2853C121.484 50.827 120.302 49.6448 118.844 49.6448Z" fill="#D61750"/>
<path d="M130.426 64.6161C130.079 64.6161 129.798 64.3349 129.798 63.9879V56.458C129.798 56.1111 130.079 55.8298 130.426 55.8298C130.773 55.8298 131.054 56.1111 131.054 56.458V63.9879C131.054 64.3349 130.773 64.6161 130.426 64.6161Z" fill="#6E1340"/>
<path d="M98.5741 34.6162C98.5741 35.3508 97.9787 35.9462 97.2441 35.9462C96.5095 35.9462 95.9141 35.3508 95.9141 34.6162C95.9141 33.8816 96.5095 33.2861 97.2441 33.2861C97.9787 33.2861 98.5741 33.8816 98.5741 34.6162Z" fill="#6E1340"/>
<path d="M80.0859 63.7832H76.3641C74.5088 63.7832 73.0049 65.2872 73.0049 67.1424V70.8643C73.0049 72.7195 74.5088 74.2235 76.3641 74.2235H80.0859C81.9412 74.2235 83.4451 72.7195 83.4451 70.8643V67.1424C83.4451 65.2872 81.9412 63.7832 80.0859 63.7832Z" fill="white"/>
<path d="M92.7666 63.7832H89.0447C87.1895 63.7832 85.6855 65.2872 85.6855 67.1424V70.8643C85.6855 72.7195 87.1895 74.2235 89.0447 74.2235H92.7666C94.6218 74.2235 96.1258 72.7195 96.1258 70.8643V67.1424C96.1258 65.2872 94.6218 63.7832 92.7666 63.7832Z" fill="white"/>
<path d="M105.445 63.7832H101.723C99.8682 63.7832 98.3643 65.2872 98.3643 67.1424V70.8643C98.3643 72.7195 99.8682 74.2235 101.723 74.2235H105.445C107.301 74.2235 108.805 72.7195 108.805 70.8643V67.1424C108.805 65.2872 107.301 63.7832 105.445 63.7832Z" fill="#5D0F36"/>
<path d="M118.125 63.7832H114.403C112.548 63.7832 111.044 65.2872 111.044 67.1424V70.8643C111.044 72.7195 112.548 74.2235 114.403 74.2235H118.125C119.98 74.2235 121.484 72.7195 121.484 70.8643V67.1424C121.484 65.2872 119.98 63.7832 118.125 63.7832Z" fill="#FF2E6D"/>
<path d="M80.0859 78.7031H76.3641C74.5088 78.7031 73.0049 80.2071 73.0049 82.0623V85.7842C73.0049 87.6394 74.5088 89.1434 76.3641 89.1434H80.0859C81.9412 89.1434 83.4451 87.6394 83.4451 85.7842V82.0623C83.4451 80.2071 81.9412 78.7031 80.0859 78.7031Z" fill="#FF2E6D"/>
<path d="M92.7666 78.7031H89.0447C87.1895 78.7031 85.6855 80.2071 85.6855 82.0623V85.7842C85.6855 87.6394 87.1895 89.1434 89.0447 89.1434H92.7666C94.6218 89.1434 96.1258 87.6394 96.1258 85.7842V82.0623C96.1258 80.2071 94.6218 78.7031 92.7666 78.7031Z" fill="#FF2E6D"/>
<path d="M105.445 78.7031H101.723C99.8682 78.7031 98.3643 80.2071 98.3643 82.0623V85.7842C98.3643 87.6394 99.8682 89.1434 101.723 89.1434H105.445C107.301 89.1434 108.805 87.6394 108.805 85.7842V82.0623C108.805 80.2071 107.301 78.7031 105.445 78.7031Z" fill="#FF2E6D"/>
<path d="M118.125 78.7031H114.403C112.548 78.7031 111.044 80.2071 111.044 82.0623V85.7842C111.044 87.6394 112.548 89.1434 114.403 89.1434H118.125C119.98 89.1434 121.484 87.6394 121.484 85.7842V82.0623C121.484 80.2071 119.98 78.7031 118.125 78.7031Z" fill="#FF2E6D"/>
<path d="M92.5521 44.9443V41.8364H93.8619C94.1934 41.8364 94.485 41.9015 94.7365 42.0318C94.9911 42.162 95.1879 42.344 95.3271 42.5779C95.4691 42.8117 95.5402 43.0825 95.5402 43.3904C95.5402 43.6982 95.4691 43.969 95.3271 44.2029C95.1879 44.4367 94.9911 44.6187 94.7365 44.749C94.485 44.8792 94.1934 44.9443 93.8619 44.9443H92.5521ZM92.9961 44.5581H93.8353C94.0928 44.5581 94.3148 44.5092 94.5012 44.4116C94.6907 44.3139 94.8372 44.1777 94.9408 44.0031C95.0444 43.8255 95.0962 43.6213 95.0962 43.3904C95.0962 43.1565 95.0444 42.9523 94.9408 42.7777C94.8372 42.603 94.6907 42.4669 94.5012 42.3692C94.3148 42.2715 94.0928 42.2227 93.8353 42.2227H92.9961V44.5581ZM95.7062 44.9443L97.1137 41.8364H97.5532L98.9651 44.9443H98.4989L97.2424 42.0851H97.42L96.1636 44.9443H95.7062ZM96.3056 44.1674L96.4255 43.8122H98.1748L98.3036 44.1674H96.3056ZM99.9926 44.9443V43.7544L100.095 44.0297L98.7584 41.8364H99.2334L100.357 43.6878H100.099L101.227 41.8364H101.666L100.335 44.0297L100.432 43.7544V44.9443H99.9926Z" fill="white"/>
<path d="M86.779 56.2273V53.1194H86.9699L88.4128 55.6102H88.3107L89.7493 53.1194H89.9357L89.9402 56.2273H89.7182L89.7137 53.4612H89.7759L88.4128 55.8144H88.3018L86.9344 53.4612H87.001V56.2273H86.779ZM92.3424 56.2495C92.1115 56.2495 91.8969 56.211 91.6986 56.1341C91.5032 56.0541 91.3316 55.9431 91.1836 55.8011C91.0385 55.656 90.9261 55.4888 90.8461 55.2994C90.7662 55.107 90.7263 54.8983 90.7263 54.6733C90.7263 54.4484 90.7662 54.2412 90.8461 54.0518C90.9261 53.8594 91.0385 53.6921 91.1836 53.55C91.3316 53.405 91.5032 53.294 91.6986 53.2171C91.8969 53.1371 92.1115 53.0972 92.3424 53.0972C92.5733 53.0972 92.7864 53.1371 92.9817 53.2171C93.18 53.294 93.3517 53.4035 93.4968 53.5456C93.6418 53.6877 93.7543 53.8549 93.8342 54.0473C93.9171 54.2367 93.9585 54.4454 93.9585 54.6733C93.9585 54.9013 93.9171 55.1114 93.8342 55.3038C93.7543 55.4932 93.6418 55.659 93.4968 55.8011C93.3517 55.9431 93.18 56.0541 92.9817 56.1341C92.7864 56.211 92.5733 56.2495 92.3424 56.2495ZM92.3424 56.0408C92.5407 56.0408 92.7242 56.0068 92.8929 55.9387C93.0616 55.8706 93.2082 55.7744 93.3325 55.6501C93.4568 55.5258 93.553 55.3808 93.6211 55.215C93.6921 55.0492 93.7276 54.8687 93.7276 54.6733C93.7276 54.475 93.6921 54.2945 93.6211 54.1317C93.553 53.9659 93.4568 53.8209 93.3325 53.6966C93.2082 53.5722 93.0616 53.476 92.8929 53.408C92.7242 53.3399 92.5407 53.3059 92.3424 53.3059C92.1441 53.3059 91.9606 53.3399 91.7918 53.408C91.6231 53.476 91.4751 53.5722 91.3479 53.6966C91.2235 53.8209 91.1259 53.9659 91.0548 54.1317C90.9867 54.2945 90.9527 54.475 90.9527 54.6733C90.9527 54.8687 90.9867 55.0492 91.0548 55.215C91.1259 55.3808 91.2235 55.5258 91.3479 55.6501C91.4751 55.7744 91.6231 55.8706 91.7918 55.9387C91.9606 56.0068 92.1441 56.0408 92.3424 56.0408ZM94.7439 56.2273V53.1194H94.9348L97.1503 55.9476H97.0482V53.1194H97.2746V56.2273H97.0881L94.8682 53.3991H94.9703V56.2273H94.7439ZM98.36 56.2273V53.1194H99.5898C99.9183 53.1194 100.207 53.186 100.456 53.3192C100.704 53.4524 100.897 53.6359 101.033 53.8697C101.172 54.1036 101.241 54.3714 101.241 54.6733C101.241 54.9752 101.172 55.2431 101.033 55.477C100.897 55.7108 100.704 55.8943 100.456 56.0275C100.207 56.1607 99.9183 56.2273 99.5898 56.2273H98.36ZM98.5864 56.0231H99.572C99.8651 56.0231 100.12 55.9653 100.336 55.8499C100.552 55.7345 100.719 55.5761 100.837 55.3748C100.956 55.1706 101.015 54.9368 101.015 54.6733C101.015 54.4099 100.956 54.1775 100.837 53.9763C100.719 53.772 100.552 53.6122 100.336 53.4968C100.12 53.3813 99.8651 53.3236 99.572 53.3236H98.5864V56.0231ZM101.465 56.2273L102.895 53.1194H103.121L104.551 56.2273H104.307L102.957 53.2615H103.055L101.709 56.2273H101.465ZM101.989 55.3526L102.065 55.1617H103.925L104 55.3526H101.989ZM105.666 56.2273V55.0996L105.719 55.2461L104.414 53.1194H104.662L105.848 55.0507H105.723L106.909 53.1194H107.144L105.839 55.2461L105.892 55.0996V56.2273H105.666Z" fill="white"/>
<path d="M118.844 92.6145H75.6454C74.1871 92.6145 73.0049 93.7967 73.0049 95.2551V99.6334C73.0049 101.092 74.1871 102.274 75.6454 102.274H118.844C120.302 102.274 121.484 101.092 121.484 99.6334V95.2551C121.484 93.7967 120.302 92.6145 118.844 92.6145Z" fill="#5D0F36"/>
<path d="M80.1459 98.9727V95.8647H81.54C81.8981 95.8647 82.1734 95.9373 82.3658 96.0823C82.5582 96.2244 82.6544 96.4197 82.6544 96.6684C82.6544 96.8371 82.6159 96.9791 82.539 97.0946C82.465 97.21 82.3643 97.2988 82.2371 97.361C82.1098 97.4231 81.9721 97.4542 81.8242 97.4542L81.9041 97.321C82.0817 97.321 82.2385 97.3521 82.3747 97.4143C82.5109 97.4764 82.6189 97.5682 82.6988 97.6895C82.7787 97.8079 82.8187 97.9559 82.8187 98.1335C82.8187 98.3999 82.718 98.6071 82.5168 98.7551C82.3185 98.9001 82.0225 98.9727 81.6288 98.9727H80.1459ZM80.5899 98.613H81.611C81.8567 98.613 82.0447 98.5716 82.1749 98.4887C82.3051 98.4058 82.3703 98.2756 82.3703 98.098C82.3703 97.9174 82.3051 97.7857 82.1749 97.7028C82.0447 97.62 81.8567 97.5785 81.611 97.5785H80.5499V97.2189H81.5C81.725 97.2189 81.8996 97.1775 82.0239 97.0946C82.1483 97.0117 82.2104 96.8874 82.2104 96.7216C82.2104 96.5559 82.1483 96.4316 82.0239 96.3487C81.8996 96.2658 81.725 96.2244 81.5 96.2244H80.5899V98.613ZM84.9091 99.0082C84.6723 99.0082 84.4518 98.9682 84.2476 98.8883C84.0463 98.8084 83.8717 98.6974 83.7237 98.5553C83.5757 98.4103 83.4603 98.2416 83.3774 98.0492C83.2945 97.8568 83.2531 97.6466 83.2531 97.4187C83.2531 97.1908 83.2945 96.9806 83.3774 96.7882C83.4603 96.5958 83.5757 96.4286 83.7237 96.2865C83.8717 96.1415 84.0463 96.029 84.2476 95.9491C84.4489 95.8692 84.6694 95.8292 84.9091 95.8292C85.1459 95.8292 85.3635 95.8692 85.5618 95.9491C85.7631 96.0261 85.9377 96.1371 86.0857 96.2821C86.2367 96.4242 86.3521 96.5914 86.432 96.7838C86.5149 96.9762 86.5563 97.1878 86.5563 97.4187C86.5563 97.6496 86.5149 97.8612 86.432 98.0536C86.3521 98.246 86.2367 98.4147 86.0857 98.5597C85.9377 98.7018 85.7631 98.8128 85.5618 98.8927C85.3635 98.9697 85.1459 99.0082 84.9091 99.0082ZM84.9091 98.613C85.0808 98.613 85.2392 98.5834 85.3842 98.5242C85.5322 98.465 85.6595 98.3822 85.766 98.2756C85.8756 98.1661 85.9599 98.0388 86.0191 97.8938C86.0813 97.7487 86.1123 97.5904 86.1123 97.4187C86.1123 97.247 86.0813 97.0887 86.0191 96.9436C85.9599 96.7986 85.8756 96.6728 85.766 96.5662C85.6595 96.4567 85.5322 96.3724 85.3842 96.3132C85.2392 96.254 85.0808 96.2244 84.9091 96.2244C84.7345 96.2244 84.5732 96.254 84.4252 96.3132C84.2802 96.3724 84.1529 96.4567 84.0434 96.5662C83.9338 96.6728 83.848 96.7986 83.7858 96.9436C83.7267 97.0887 83.6971 97.247 83.6971 97.4187C83.6971 97.5904 83.7267 97.7487 83.7858 97.8938C83.848 98.0388 83.9338 98.1661 84.0434 98.2756C84.1529 98.3822 84.2802 98.465 84.4252 98.5242C84.5732 98.5834 84.7345 98.613 84.9091 98.613ZM88.6379 99.0082C88.4012 99.0082 88.1806 98.9682 87.9764 98.8883C87.7751 98.8084 87.6005 98.6974 87.4525 98.5553C87.3045 98.4103 87.1891 98.2416 87.1062 98.0492C87.0233 97.8568 86.9819 97.6466 86.9819 97.4187C86.9819 97.1908 87.0233 96.9806 87.1062 96.7882C87.1891 96.5958 87.3045 96.4286 87.4525 96.2865C87.6005 96.1415 87.7751 96.029 87.9764 95.9491C88.1777 95.8692 88.3982 95.8292 88.6379 95.8292C88.8747 95.8292 89.0923 95.8692 89.2906 95.9491C89.4919 96.0261 89.6665 96.1371 89.8145 96.2821C89.9655 96.4242 90.0809 96.5914 90.1608 96.7838C90.2437 96.9762 90.2851 97.1878 90.2851 97.4187C90.2851 97.6496 90.2437 97.8612 90.1608 98.0536C90.0809 98.246 89.9655 98.4147 89.8145 98.5597C89.6665 98.7018 89.4919 98.8128 89.2906 98.8927C89.0923 98.9697 88.8747 99.0082 88.6379 99.0082ZM88.6379 98.613C88.8096 98.613 88.968 98.5834 89.113 98.5242C89.261 98.465 89.3883 98.3822 89.4948 98.2756C89.6044 98.1661 89.6887 98.0388 89.7479 97.8938C89.8101 97.7487 89.8412 97.5904 89.8412 97.4187C89.8412 97.247 89.8101 97.0887 89.7479 96.9436C89.6887 96.7986 89.6044 96.6728 89.4948 96.5662C89.3883 96.4567 89.261 96.3724 89.113 96.3132C88.968 96.254 88.8096 96.2244 88.6379 96.2244C88.4633 96.2244 88.302 96.254 88.154 96.3132C88.009 96.3724 87.8817 96.4567 87.7722 96.5662C87.6627 96.6728 87.5768 96.7986 87.5147 96.9436C87.4555 97.0887 87.4259 97.247 87.4259 97.4187C87.4259 97.5904 87.4555 97.7487 87.5147 97.8938C87.5768 98.0388 87.6627 98.1661 87.7722 98.2756C87.8817 98.3822 88.009 98.465 88.154 98.5242C88.302 98.5834 88.4633 98.613 88.6379 98.613ZM91.3545 98.2223L91.3323 97.6807L93.0949 95.8647H93.601L92.238 97.3033L91.9894 97.5785L91.3545 98.2223ZM90.9638 98.9727V95.8647H91.4077V98.9727H90.9638ZM93.1659 98.9727L91.8917 97.4897L92.1892 97.1612L93.6854 98.9727H93.1659ZM94.1549 98.9727V95.8647H94.5989V98.9727H94.1549ZM95.5294 98.9727V95.8647H95.8934L97.9491 98.4177H97.7582V95.8647H98.2022V98.9727H97.8381L95.7824 96.4197H95.9734V98.9727H95.5294ZM100.535 99.0082C100.296 99.0082 100.075 98.9697 99.8739 98.8927C99.6726 98.8128 99.498 98.7018 99.35 98.5597C99.202 98.4147 99.0866 98.246 99.0037 98.0536C98.9208 97.8612 98.8794 97.6496 98.8794 97.4187C98.8794 97.1878 98.9208 96.9762 99.0037 96.7838C99.0866 96.5914 99.202 96.4242 99.35 96.2821C99.5009 96.1371 99.6771 96.0261 99.8783 95.9491C100.08 95.8692 100.302 95.8292 100.544 95.8292C100.79 95.8292 101.015 95.8692 101.219 95.9491C101.423 96.029 101.597 96.1489 101.739 96.3087L101.463 96.584C101.336 96.4597 101.197 96.3694 101.046 96.3132C100.898 96.254 100.737 96.2244 100.562 96.2244C100.384 96.2244 100.219 96.254 100.065 96.3132C99.9139 96.3724 99.7821 96.4552 99.6697 96.5618C99.5601 96.6684 99.4743 96.7956 99.4122 96.9436C99.353 97.0887 99.3234 97.247 99.3234 97.4187C99.3234 97.5874 99.353 97.7458 99.4122 97.8938C99.4743 98.0388 99.5601 98.1661 99.6697 98.2756C99.7821 98.3822 99.9139 98.465 100.065 98.5242C100.216 98.5834 100.38 98.613 100.558 98.613C100.723 98.613 100.882 98.5879 101.033 98.5375C101.187 98.4843 101.329 98.397 101.459 98.2756L101.712 98.613C101.558 98.7433 101.378 98.8424 101.17 98.9105C100.966 98.9756 100.754 99.0082 100.535 99.0082ZM101.286 98.5553V97.4009H101.712V98.613L101.286 98.5553ZM103.754 98.9727V95.8647H104.118L106.174 98.4177H105.983V95.8647H106.427V98.9727H106.063L104.007 96.4197H104.198V98.9727H103.754ZM108.76 99.0082C108.524 99.0082 108.303 98.9682 108.099 98.8883C107.898 98.8084 107.723 98.6974 107.575 98.5553C107.427 98.4103 107.312 98.2416 107.229 98.0492C107.146 97.8568 107.104 97.6466 107.104 97.4187C107.104 97.1908 107.146 96.9806 107.229 96.7882C107.312 96.5958 107.427 96.4286 107.575 96.2865C107.723 96.1415 107.898 96.029 108.099 95.9491C108.3 95.8692 108.521 95.8292 108.76 95.8292C108.997 95.8292 109.215 95.8692 109.413 95.9491C109.614 96.0261 109.789 96.1371 109.937 96.2821C110.088 96.4242 110.203 96.5914 110.283 96.7838C110.366 96.9762 110.408 97.1878 110.408 97.4187C110.408 97.6496 110.366 97.8612 110.283 98.0536C110.203 98.246 110.088 98.4147 109.937 98.5597C109.789 98.7018 109.614 98.8128 109.413 98.8927C109.215 98.9697 108.997 99.0082 108.76 99.0082ZM108.76 98.613C108.932 98.613 109.091 98.5834 109.236 98.5242C109.384 98.465 109.511 98.3822 109.617 98.2756C109.727 98.1661 109.811 98.0388 109.87 97.8938C109.933 97.7487 109.964 97.5904 109.964 97.4187C109.964 97.247 109.933 97.0887 109.87 96.9436C109.811 96.7986 109.727 96.6728 109.617 96.5662C109.511 96.4567 109.384 96.3724 109.236 96.3132C109.091 96.254 108.932 96.2244 108.76 96.2244C108.586 96.2244 108.425 96.254 108.277 96.3132C108.132 96.3724 108.004 96.4567 107.895 96.5662C107.785 96.6728 107.699 96.7986 107.637 96.9436C107.578 97.0887 107.548 97.247 107.548 97.4187C107.548 97.5904 107.578 97.7487 107.637 97.8938C107.699 98.0388 107.785 98.1661 107.895 98.2756C108.004 98.3822 108.132 98.465 108.277 98.5242C108.425 98.5834 108.586 98.613 108.76 98.613ZM111.706 98.9727L110.667 95.8647H111.124L112.079 98.7329H111.848L112.838 95.8647H113.246L114.214 98.7329H113.992L114.96 95.8647H115.382L114.343 98.9727H113.877L112.971 96.3132H113.091L112.181 98.9727H111.706Z" fill="white"/>
<g opacity="0.2">
<path d="M68.1338 115.736L126.603 57.266V38.5557L68.1338 97.0252V115.736Z" fill="white"/>
<path d="M126.603 73.1386V63.7834L68.1338 122.253V131.608L126.603 73.1386Z" fill="white"/>
</g>
<path d="M114.483 36.4996C114.483 36.8053 114.235 37.053 113.929 37.053C113.624 37.053 113.376 36.8053 113.376 36.4996C113.376 36.194 113.624 35.9463 113.929 35.9463C114.235 35.9463 114.483 36.194 114.483 36.4996Z" fill="#D61750"/>
<path d="M116.819 36.4996C116.819 36.8053 116.571 37.053 116.265 37.053C115.96 37.053 115.712 36.8053 115.712 36.4996C115.712 36.194 115.96 35.9463 116.265 35.9463C116.571 35.9463 116.819 36.194 116.819 36.4996Z" fill="#D61750"/>
<path d="M119.153 36.4996C119.153 36.8053 118.905 37.053 118.599 37.053C118.294 37.053 118.046 36.8053 118.046 36.4996C118.046 36.194 118.294 35.9463 118.599 35.9463C118.905 35.9463 119.153 36.194 119.153 36.4996Z" fill="#D61750"/>
<path d="M121.488 36.4996C121.488 36.8053 121.24 37.053 120.934 37.053C120.629 37.053 120.381 36.8053 120.381 36.4996C120.381 36.194 120.629 35.9463 120.934 35.9463C121.24 35.9463 121.488 36.194 121.488 36.4996Z" fill="#D61750"/>
<path d="M67.5176 46.1567H63.7957C61.9405 46.1567 60.4365 47.6607 60.4365 49.5159V53.2378C60.4365 55.093 61.9405 56.597 63.7957 56.597H67.5176C69.3728 56.597 70.8768 55.093 70.8768 53.2378V49.5159C70.8768 47.6607 69.3728 46.1567 67.5176 46.1567Z" fill="#5D0F36"/>
<path d="M46.0566 38.6767C46.5794 42.0115 46.0742 45.5002 44.6269 48.5498C42.5625 48.5846 40.1473 48.0749 38.635 46.6693C37.1226 45.2638 36.2621 43.132 36.5534 41.088C36.8447 39.044 38.3561 37.1793 40.3471 36.633C42.3382 36.0867 45.7368 36.6369 46.0566 38.6767Z" fill="#F9C489"/>
<path d="M38.9072 46.4109C38.6564 48.9822 38.2745 51.5408 37.7637 54.0733C39.51 54.5673 41.579 54.2007 43.2704 53.5427C43.3266 51.2604 43.2956 48.9636 43.3517 46.6812C42.0322 46.072 40.3597 46.3616 38.9072 46.4109Z" fill="#F9C489"/>
<path d="M36.0962 52.4607C31.5907 56.1161 28.1375 61.0538 26.25 66.54C27.4349 72.0262 29.6441 77.3392 32.6744 82.0635C33.3801 81.3577 34.6463 81.0247 35.352 80.3188C33.1956 76.4547 31.6846 72.0596 30.7186 67.7412C32.5959 65.824 34.4884 63.5199 35.9906 61.2964C37.5779 58.9472 36.8106 55.2045 36.0962 52.4607Z" fill="#F9C489"/>
<path d="M33.0905 53.7686C30.9624 55.5955 27.4863 60.5343 26.25 63.0518C27.2697 65.3597 29.4955 66.5123 32.2388 67.0011C33.4305 65.8835 34.8136 64.798 36.0053 63.6804C38.5884 61.258 35.3529 56.4929 33.0905 53.7686Z" fill="#FF2E6D"/>
<path d="M42.942 119.128C42.3904 126.051 42.2376 133.007 42.4846 139.948C43.4527 140.258 44.7229 140.218 45.7345 140.117C46.9393 133.848 48.2105 127.535 48.8466 121.183C47.1421 119.773 45.15 119.266 42.942 119.128Z" fill="#F9C489"/>
<path d="M26.8443 119.128C26.2927 126.051 26.1399 133.007 26.387 139.948C27.355 140.258 28.6252 140.218 29.6368 140.117C30.8417 133.848 32.1129 127.535 32.7489 121.183C31.0445 119.773 29.0523 119.266 26.8443 119.128Z" fill="#F9C489"/>
<path opacity="0.1" d="M26.3818 127.33C28.1472 127.85 29.9542 128.224 31.7811 128.449C32.1706 126.033 32.5073 123.611 32.7504 121.183C31.0459 119.773 29.0538 119.266 26.8458 119.128C26.6283 121.858 26.4753 124.593 26.3818 127.33Z" fill="black"/>
<path opacity="0.1" d="M42.4551 128.118C44.4012 127.757 46.3159 127.232 48.1696 126.543C48.3631 125.237 48.5352 123.93 48.6853 122.621C46.7 122.039 44.7547 121.461 42.8122 120.921C42.6452 123.317 42.5266 125.717 42.4551 128.118Z" fill="black"/>
<path d="M34.9482 73.063C31.6577 79.1484 29.3888 85.7847 28.2649 92.6108C27.4644 97.4727 27.2403 102.424 26.2383 107.249C25.2363 112.073 23.3554 116.89 19.8096 120.311C29.4693 126.953 42.4547 128.6 53.2753 124.091C50.963 116.076 51.18 107.729 51.4386 99.3911C51.6971 91.053 51.6784 82.4466 48.4998 74.7338C44.1445 73.354 39.5166 73.1153 34.9482 73.063Z" fill="#5D0F36"/>
<path opacity="0.1" d="M36.0779 74.2695C34.4506 79.1008 33.5153 84.1647 33.3096 89.2586C34.5131 84.43 36.1626 79.3696 37.8947 74.7045C37.6512 77.4976 37.3301 80.4412 36.6148 83.1521C37.6504 80.2607 38.686 77.3692 39.7216 74.4777C40.7382 74.9849 41.8984 75.7465 43.0202 75.9259C42.7293 78.402 41.9191 80.8515 41.1271 83.2155C42.1578 80.785 43.0053 78.2767 43.6599 75.7191C43.4275 78.1032 43.1737 80.4727 42.6496 82.8101C43.9971 80.5153 44.9852 78.0099 45.567 75.4131C46.1575 75.4468 46.8052 75.9023 47.3956 75.9359C47.3931 79.0669 47.3054 82.2901 47.3029 85.4211C47.7621 82.0252 48.1082 78.6139 48.3406 75.1949C44.3835 73.8556 40.1767 73.4619 36.0779 74.2695Z" fill="black"/>
<path d="M38.8369 51.2342C35.9948 51.5803 33.8637 54.2204 33.2037 57.0063C32.5437 59.7922 33.047 62.7077 33.5875 65.5192C34.128 68.3308 34.7056 71.2183 34.1876 74.034C38.8147 76.2629 44.1632 77.0742 49.18 75.9741C50.3849 72.507 51.3831 68.7385 51.7432 65.0856C52.1033 61.4327 51.5327 57.5636 49.4288 54.5557C47.3249 51.5479 42.4805 50.7904 38.8369 51.2342Z" fill="#FF2E6D"/>
<path opacity="0.1" d="M50.2677 57.0173C49.8761 56.5875 49.3344 56.2637 48.7531 56.2541C48.0882 56.2432 47.469 56.6469 47.0658 57.1758C46.6626 57.7046 46.4422 58.3477 46.2531 58.9853C45.1577 62.678 45.1327 66.3539 46.0186 70.1023C46.4829 70.0865 46.9452 70.0368 47.4032 69.961C47.8459 71.8053 48.5233 73.5913 49.4211 75.259C50.516 71.9913 51.4085 68.4898 51.7441 65.0854C51.9435 63.0633 51.8558 60.9755 51.3825 59.0036C51.3094 58.8376 51.2385 58.6707 51.163 58.5056C50.9213 57.9768 50.6592 57.4471 50.2677 57.0173Z" fill="black"/>
<path d="M63.6672 60.0496C63.8612 58.811 62.5058 58.1341 61.2645 57.9583C59.6872 62.2604 57.5151 66.6355 55.9378 70.9376C54.0509 66.6242 52.1641 62.3108 50.2772 57.9974C50.0974 57.5863 49.9099 57.164 49.5871 56.8523C49.2644 56.5407 48.3637 56.7696 47.951 56.9458C46.0123 64.0114 47.9456 72.014 52.8961 77.4154C53.7484 78.3453 55.0937 79.4719 56.3196 79.1743C57.5454 78.8767 58.4903 77.8544 59.0261 76.7124C59.5619 75.5703 63.1649 63.257 63.6672 60.0496Z" fill="#F9C489"/>
<path opacity="0.1" d="M53.6279 65.6584C52.5152 65.7522 51.5691 65.9077 50.4224 66.1333C49.6467 66.2858 48.8352 66.49 48.2692 67.0419C48.0779 67.2283 47.93 67.4459 47.8115 67.6805C48.1255 69.0131 48.5602 70.3172 49.1099 71.57C51.2309 70.3816 52.9419 68.4671 53.8739 66.2209C53.7919 66.0334 53.7099 65.8459 53.6279 65.6584Z" fill="black"/>
<path d="M40.3659 61.8647C42.1473 62.1601 43.6691 60.5387 44.4502 58.9108C45.8759 55.9395 46.0615 52.3963 44.954 49.2924C44.3435 47.5813 43.3482 45.7545 44.0069 44.0613C44.3793 43.104 45.2157 42.4193 46.002 41.7583C46.7883 41.0973 47.5953 40.3576 47.8669 39.3669C48.1384 38.3762 47.6058 37.1012 46.5871 36.9692C45.6175 35.8653 44.1731 35.3598 42.7045 35.4018C41.2359 35.4439 39.8173 35.9127 38.4233 36.377C36.604 36.983 34.5515 37.8119 33.9446 39.6309C33.3175 41.5105 34.5622 43.5983 34.0662 45.5167C33.6052 47.2992 31.7522 48.4921 31.392 50.2977C30.9949 52.289 32.5542 54.2028 32.4717 56.2317C32.4092 57.7677 31.4064 59.2089 31.6184 60.7315C31.845 62.36 33.4532 63.5134 35.0782 63.7642C36.7032 64.015 38.7828 62.3086 40.3659 61.8647Z" fill="#18191B"/>
<path d="M45.9939 43.1172C45.9637 43.9584 46.0711 44.8044 46.3104 45.6114C46.2712 45.6862 46.2215 45.7659 46.1823 45.8406C45.8677 45.8658 45.5416 45.8471 45.2271 45.8723C45.2051 44.9153 45.4274 43.8888 45.9939 43.1172Z" fill="#F9C489"/>
<path d="M47.0563 70.0758C49.9062 69.7105 52.5892 68.1805 54.3548 65.9138C53.6741 63.1383 52.5217 60.5265 51.0963 58.0497C50.8064 57.5458 50.4959 57.0428 50.066 56.6514C49.6361 56.2601 49.0666 55.9881 48.4869 56.0329C47.8239 56.0841 47.245 56.5438 46.8929 57.1079C46.5408 57.6721 46.3814 58.333 46.2526 58.9854C45.5065 62.7642 45.8245 66.4264 47.0563 70.0758Z" fill="#FF2E6D"/>
<path d="M42.9633 47.291C42.7182 45.9504 43.5236 44.7448 44.0256 44.1456C44.4157 43.6796 44.8646 43.2627 45.2989 42.8595C45.6523 42.5313 46.0178 42.1919 46.3442 41.832C47.4029 40.6645 47.8303 39.3439 47.4873 38.2993L47.8359 38.1851C48.2205 39.3565 47.7646 40.8119 46.6161 42.0785C46.279 42.45 45.9076 42.7948 45.5484 43.1284C45.1226 43.5237 44.6821 43.9327 44.3068 44.3809C43.8463 44.9311 43.1061 46.0319 43.3241 47.2251L42.9633 47.291Z" fill="#18191B"/>
<path d="M32.9793 59.2715L32.6181 59.2073C32.894 57.6569 32.2914 56.0937 31.7088 54.582L31.6013 54.3023C30.9477 52.5967 30.4318 50.7912 31.0788 49.1442C31.3088 48.5582 31.6759 48.0383 32.0308 47.5355C32.473 46.9087 32.8908 46.3168 33.0592 45.6151C33.2249 44.9256 33.1278 44.2212 33.0251 43.4755C32.9608 43.0088 32.8945 42.5262 32.8979 42.0461C32.9123 40.0894 34.1888 38.2097 36.0022 37.4749L36.1402 37.8149C34.4604 38.4954 33.2781 40.2365 33.2648 42.0488C33.2616 42.5024 33.3261 42.9718 33.3886 43.4255C33.4914 44.1722 33.5977 44.9441 33.416 45.7007C33.2311 46.4709 32.7733 47.1195 32.3304 47.7471C31.9881 48.232 31.6341 48.7336 31.4202 49.2782C30.819 50.8089 31.3167 52.5344 31.9438 54.1712L32.0512 54.4499C32.6518 56.0086 33.2731 57.6203 32.9793 59.2715Z" fill="#18191B"/>
<path d="M41.0404 62.2864C40.8964 62.2864 40.751 62.2815 40.6035 62.2709C39.4996 62.1931 38.4409 61.8554 37.417 61.5289L37.5284 61.1792C38.5318 61.4993 39.5693 61.8302 40.6293 61.9051C41.7881 61.9855 42.8354 61.7247 43.5776 61.1672C44.2673 60.649 44.7887 59.8025 45.0458 58.7838C45.2878 57.8259 45.2898 56.8195 45.2561 55.8747C45.1692 53.4452 44.8258 51.0173 44.2357 48.6588L44.5915 48.5696C45.188 50.9532 45.5348 53.4065 45.6226 55.8614C45.6574 56.8335 45.6547 57.871 45.4016 58.8737C45.1241 59.9734 44.5546 60.8921 43.7979 61.4606C43.0812 61.9991 42.1142 62.2864 41.0404 62.2864Z" fill="#18191B"/>
<path d="M60.5765 60.9374L61.0599 59.4801C61.263 58.8679 61.2258 58.2028 60.9632 57.6137C60.7067 57.0386 60.4203 56.2731 60.3663 55.6255C60.2648 54.4074 59.4785 53.5686 59.4785 53.5686C59.4785 53.5686 59.954 53.0701 60.4523 53.7444C60.8063 54.2235 61.0076 54.7735 61.0944 55.0517C61.1301 55.1661 61.2192 55.2557 61.3338 55.2906C61.4976 55.3406 61.6739 55.2684 61.7556 55.118L61.8296 54.9818C62.1128 54.4604 62.3042 53.8941 62.3952 53.3078L62.8481 50.392C62.8699 50.2521 63.0025 50.1576 63.1419 50.1828C63.2644 50.2049 63.3524 50.3133 63.3489 50.4378L63.2644 53.4497C63.262 53.5341 63.3807 53.5553 63.4077 53.4752L64.4328 50.4302C64.4737 50.3089 64.5973 50.2358 64.7232 50.2586L64.7474 50.263C64.8868 50.2881 64.9799 50.4209 64.9559 50.5605L64.4373 53.5848C64.4225 53.6714 64.5445 53.7065 64.5779 53.6252L65.5879 51.1676C65.6465 51.0249 65.8164 50.9652 65.9514 51.0398L65.9521 51.0402C66.0562 51.0978 66.1075 51.2191 66.0761 51.3339L65.1732 54.6426C65.1514 54.7226 65.2581 54.7719 65.3049 54.7034L66.6038 52.8012C66.6867 52.6798 66.8541 52.6521 66.9718 52.7403C67.0696 52.8136 67.1025 52.9456 67.0506 53.0563L65.086 57.2456L63.9889 59.1335L63.0222 61.8772L60.5765 60.9374Z" fill="#F9C489"/>
<g opacity="0.2">
<path d="M65.5314 55.4757C65.4738 55.3631 65.3587 55.282 65.2334 55.2656L65.5314 55.4757Z" fill="white"/>
<path d="M65.5314 55.4761C65.5406 55.3992 65.496 55.3323 65.439 55.2908C65.3808 55.2508 65.3027 55.2313 65.2334 55.266C65.2894 55.3171 65.3316 55.3464 65.3766 55.3792C65.4228 55.4104 65.4647 55.4404 65.5314 55.4761Z" fill="black"/>
<path d="M64.856 54.5353C64.8665 54.455 64.8195 54.383 64.7587 54.3389C64.6969 54.2963 64.613 54.2763 64.541 54.3135C64.6029 54.3627 64.6485 54.3927 64.6964 54.4274C64.7453 54.4605 64.789 54.4935 64.856 54.5353Z" fill="black"/>
<path d="M64.0886 53.9741C64.0703 53.8852 63.9961 53.8214 63.9151 53.7913C63.8336 53.7627 63.7357 53.7646 63.665 53.8217C63.7489 53.8505 63.8126 53.8685 63.8785 53.8931C63.9451 53.916 64.0057 53.9427 64.0886 53.9741Z" fill="black"/>
<path d="M63.03 53.7135C63.011 53.6413 62.9462 53.5988 62.8805 53.5843C62.8143 53.5718 62.738 53.5856 62.6924 53.6449C62.7612 53.6693 62.808 53.6791 62.8589 53.6904C62.9102 53.6997 62.9573 53.709 63.03 53.7135Z" fill="black"/>
</g>
<g opacity="0.3">
<path d="M66.6935 52.8623C66.7167 52.8281 66.752 52.8057 66.7927 52.7989C66.8334 52.7922 66.874 52.8022 66.907 52.8269C66.9637 52.87 66.9828 52.9464 66.9527 53.0102L66.8669 53.1933C66.7779 53.1279 66.6824 53.0715 66.582 53.0255L66.6935 52.8623Z" fill="white"/>
<path d="M63.2417 50.4346L63.2392 50.5266C63.1428 50.5013 63.0445 50.4834 62.9463 50.4724L62.9562 50.4085C62.9621 50.3699 62.983 50.3362 63.0147 50.3136C63.0466 50.2909 63.0852 50.2822 63.1236 50.2892C63.194 50.3019 63.2437 50.3632 63.2417 50.4346Z" fill="white"/>
<path d="M65.6891 51.2084C65.7056 51.1685 65.7372 51.1384 65.778 51.1241C65.8189 51.1098 65.8623 51.1134 65.9002 51.1344C65.9614 51.1682 65.9911 51.2383 65.9729 51.3052L65.9535 51.3763C65.8602 51.3332 65.7602 51.3031 65.6572 51.286L65.6891 51.2084Z" fill="white"/>
<path d="M64.5146 50.5293L64.5364 50.4647C64.5598 50.3948 64.6323 50.352 64.7049 50.3652L64.7293 50.3695C64.8092 50.3839 64.8638 50.4613 64.8501 50.5422L64.8408 50.5961C64.7365 50.5604 64.6245 50.5395 64.5146 50.5293Z" fill="white"/>
</g>
<path opacity="0.2" d="M59.6336 53.458C59.8107 53.5932 59.9844 53.743 60.0635 53.9489C60.0346 54.0376 59.9822 54.1232 59.9159 54.1963C59.6953 53.8003 59.4785 53.5688 59.4785 53.5688C59.4785 53.5688 59.5372 53.5084 59.6336 53.458Z" fill="white"/>
<path opacity="0.2" d="M62.4425 61.0884C60.9678 63.8224 59.8798 66.7646 59.2207 69.8002C60.9631 67.321 62.0545 64.0938 62.4425 61.0884Z" fill="white"/>
<path d="M46.542 21.3181H29.2545C28.0606 21.3181 27.0928 22.286 27.0928 23.4799V26.9248C27.0928 28.1187 28.0606 29.0866 29.2545 29.0866H46.542C47.7359 29.0866 48.7038 28.1187 48.7038 26.9248V23.4799C48.7038 22.286 47.7359 21.3181 46.542 21.3181Z" fill="#5D0F36"/>
<path d="M30.4369 26.3129C30.1853 26.3129 29.9678 26.2759 29.7843 26.2019C29.6007 26.1279 29.4587 26.0228 29.358 25.8866C29.2574 25.7475 29.2071 25.5847 29.2071 25.3982C29.2071 25.2147 29.2544 25.0593 29.3491 24.9321C29.4468 24.8018 29.5874 24.7041 29.7709 24.639C29.9545 24.5709 30.1764 24.5369 30.4369 24.5369C30.6974 24.5369 30.9194 24.5709 31.1029 24.639C31.2894 24.7041 31.4315 24.8018 31.5291 24.9321C31.6268 25.0623 31.6756 25.2177 31.6756 25.3982C31.6756 25.5847 31.6253 25.7475 31.5247 25.8866C31.4241 26.0228 31.2805 26.1279 31.094 26.2019C30.9075 26.2759 30.6885 26.3129 30.4369 26.3129ZM30.4369 25.9532C30.6856 25.9532 30.8794 25.9029 31.0185 25.8023C31.1606 25.6987 31.2317 25.5596 31.2317 25.3849C31.2317 25.2133 31.1606 25.0786 31.0185 24.9809C30.8794 24.8803 30.6856 24.8299 30.4369 24.8299C30.1912 24.8299 29.9989 24.8803 29.8597 24.9809C29.7206 25.0786 29.6511 25.2133 29.6511 25.3849C29.6511 25.5596 29.7206 25.6987 29.8597 25.8023C29.9989 25.9029 30.1912 25.9532 30.4369 25.9532ZM30.4369 24.7767C30.2001 24.7767 29.9989 24.7456 29.8331 24.6834C29.6673 24.6183 29.5401 24.5266 29.4513 24.4082C29.3625 24.2868 29.3181 24.1432 29.3181 23.9775C29.3181 23.8028 29.3639 23.6534 29.4557 23.5291C29.5504 23.4018 29.6821 23.3041 29.8509 23.236C30.0196 23.1679 30.2149 23.1339 30.4369 23.1339C30.6619 23.1339 30.8587 23.1679 31.0274 23.236C31.1961 23.3041 31.3279 23.4018 31.4226 23.5291C31.5173 23.6534 31.5647 23.8028 31.5647 23.9775C31.5647 24.1432 31.5203 24.2868 31.4315 24.4082C31.3427 24.5266 31.2139 24.6183 31.0452 24.6834C30.8765 24.7456 30.6737 24.7767 30.4369 24.7767ZM30.4369 24.4925C30.653 24.4925 30.8217 24.4481 30.9431 24.3593C31.0674 24.2705 31.1295 24.1492 31.1295 23.9952C31.1295 23.8384 31.0659 23.7155 30.9386 23.6267C30.8114 23.5379 30.6441 23.4935 30.4369 23.4935C30.2297 23.4935 30.064 23.5379 29.9397 23.6267C29.8183 23.7155 29.7576 23.8384 29.7576 23.9952C29.7576 24.1492 29.8168 24.2705 29.9352 24.3593C30.0566 24.4481 30.2238 24.4925 30.4369 24.4925ZM32.3752 24.5103C32.2923 24.5103 32.2213 24.4822 32.1621 24.4259C32.1029 24.3667 32.0733 24.2927 32.0733 24.2039C32.0733 24.1151 32.1029 24.0426 32.1621 23.9864C32.2213 23.9301 32.2923 23.902 32.3752 23.902C32.4551 23.902 32.5232 23.9301 32.5794 23.9864C32.6386 24.0426 32.6682 24.1151 32.6682 24.2039C32.6682 24.2927 32.6386 24.3667 32.5794 24.4259C32.5232 24.4822 32.4551 24.5103 32.3752 24.5103ZM32.3752 26.304C32.2923 26.304 32.2213 26.2759 32.1621 26.2196C32.1029 26.1604 32.0733 26.0864 32.0733 25.9976C32.0733 25.9088 32.1029 25.8363 32.1621 25.7801C32.2213 25.7238 32.2923 25.6957 32.3752 25.6957C32.4551 25.6957 32.5232 25.7238 32.5794 25.7801C32.6386 25.8363 32.6682 25.9088 32.6682 25.9976C32.6682 26.0864 32.6386 26.1604 32.5794 26.2196C32.5232 26.2759 32.4551 26.304 32.3752 26.304ZM34.0382 26.3129C33.8192 26.3129 33.606 26.2788 33.3988 26.2107C33.1946 26.1427 33.0274 26.0509 32.8971 25.9355L33.1014 25.5847C33.205 25.6824 33.3396 25.7623 33.5054 25.8245C33.6712 25.8866 33.8488 25.9177 34.0382 25.9177C34.2691 25.9177 34.4481 25.8689 34.5754 25.7712C34.7056 25.6706 34.7708 25.5359 34.7708 25.3672C34.7708 25.2044 34.7086 25.0741 34.5843 24.9765C34.4629 24.8758 34.2691 24.8255 34.0027 24.8255H33.754V24.5147L34.6775 23.3781L34.7397 23.5557H33.0392V23.1694H35.0904V23.4713L34.1714 24.6035L33.9405 24.4659H34.087C34.4629 24.4659 34.7441 24.5502 34.9306 24.7189C35.12 24.8877 35.2148 25.1023 35.2148 25.3627C35.2148 25.5374 35.1718 25.6972 35.086 25.8422C35.0002 25.9873 34.8699 26.1027 34.6953 26.1885C34.5236 26.2714 34.3046 26.3129 34.0382 26.3129ZM36.8986 26.3129C36.6559 26.3129 36.4384 26.2507 36.246 26.1264C36.0566 26.0021 35.9056 25.8215 35.7931 25.5847C35.6836 25.3479 35.6288 25.0608 35.6288 24.7234C35.6288 24.386 35.6836 24.0988 35.7931 23.862C35.9056 23.6253 36.0566 23.4447 36.246 23.3204C36.4384 23.1961 36.6559 23.1339 36.8986 23.1339C37.1384 23.1339 37.3545 23.1961 37.5469 23.3204C37.7393 23.4447 37.8902 23.6253 37.9997 23.862C38.1093 24.0988 38.164 24.386 38.164 24.7234C38.164 25.0608 38.1093 25.3479 37.9997 25.5847C37.8902 25.8215 37.7393 26.0021 37.5469 26.1264C37.3545 26.2507 37.1384 26.3129 36.8986 26.3129ZM36.8986 25.9177C37.0614 25.9177 37.2035 25.8733 37.3249 25.7845C37.4492 25.6957 37.5454 25.5625 37.6135 25.3849C37.6845 25.2073 37.72 24.9868 37.72 24.7234C37.72 24.46 37.6845 24.2394 37.6135 24.0618C37.5454 23.8842 37.4492 23.7511 37.3249 23.6623C37.2035 23.5735 37.0614 23.5291 36.8986 23.5291C36.7359 23.5291 36.5923 23.5735 36.468 23.6623C36.3437 23.7511 36.246 23.8842 36.1749 24.0618C36.1069 24.2394 36.0728 24.46 36.0728 24.7234C36.0728 24.9868 36.1069 25.2073 36.1749 25.3849C36.246 25.5625 36.3437 25.6957 36.468 25.7845C36.5923 25.8733 36.7359 25.9177 36.8986 25.9177ZM39.565 26.2773L40.9724 23.1694H41.412L42.8239 26.2773H42.3577L41.1012 23.4181H41.2788L40.0223 26.2773H39.565ZM40.1644 25.5004L40.2843 25.1452H42.0336L42.1623 25.5004H40.1644ZM43.2875 26.2773V23.1694H43.6516L45.0457 25.5181H44.8503L46.2267 23.1694H46.5908L46.5952 26.2773H46.169L46.1645 23.8398H46.2667L45.0413 25.9H44.837L43.6027 23.8398H43.7137V26.2773H43.2875Z" fill="white"/>
<path d="M147.252 20.2939H128.862C127.666 20.2939 126.697 21.2618 126.697 22.4557V25.9007C126.697 27.0946 127.666 28.0624 128.862 28.0624H147.252C148.447 28.0624 149.416 27.0946 149.416 25.9007V22.4557C149.416 21.2618 148.447 20.2939 147.252 20.2939Z" fill="#5D0F36"/>
<path d="M130.539 25.8641C130.32 25.8641 130.107 25.8301 129.899 25.762C129.695 25.6939 129.528 25.6022 129.398 25.4867L129.602 25.136C129.706 25.2337 129.84 25.3136 130.006 25.3757C130.172 25.4379 130.348 25.469 130.534 25.469C130.771 25.469 130.953 25.4187 131.08 25.318C131.208 25.2174 131.271 25.0827 131.271 24.914C131.271 24.7986 131.243 24.6979 131.187 24.6121C131.131 24.5262 131.033 24.4611 130.894 24.4167C130.758 24.3694 130.57 24.3457 130.33 24.3457H129.624L129.788 22.7207H131.542V23.107H129.953L130.184 22.8894L130.055 24.1725L129.824 23.9594H130.423C130.734 23.9594 130.984 23.9994 131.174 24.0793C131.363 24.1592 131.501 24.2702 131.587 24.4123C131.672 24.5514 131.715 24.7127 131.715 24.8962C131.715 25.0738 131.672 25.2366 131.587 25.3846C131.501 25.5297 131.371 25.6466 131.196 25.7354C131.024 25.8212 130.805 25.8641 130.539 25.8641ZM132.378 24.0615C132.295 24.0615 132.224 24.0334 132.165 23.9772C132.106 23.918 132.076 23.844 132.076 23.7552C132.076 23.6664 132.106 23.5939 132.165 23.5376C132.224 23.4814 132.295 23.4533 132.378 23.4533C132.458 23.4533 132.526 23.4814 132.582 23.5376C132.641 23.5939 132.671 23.6664 132.671 23.7552C132.671 23.844 132.641 23.918 132.582 23.9772C132.526 24.0334 132.458 24.0615 132.378 24.0615ZM132.378 25.8553C132.295 25.8553 132.224 25.8271 132.165 25.7709C132.106 25.7117 132.076 25.6377 132.076 25.5489C132.076 25.4601 132.106 25.3876 132.165 25.3313C132.224 25.2751 132.295 25.247 132.378 25.247C132.458 25.247 132.526 25.2751 132.582 25.3313C132.641 25.3876 132.671 25.4601 132.671 25.5489C132.671 25.6377 132.641 25.7117 132.582 25.7709C132.526 25.8271 132.458 25.8553 132.378 25.8553ZM134.361 25.8641C134.118 25.8641 133.9 25.802 133.708 25.6777C133.518 25.5533 133.368 25.3728 133.255 25.136C133.146 24.8992 133.091 24.6121 133.091 24.2747C133.091 23.9372 133.146 23.6501 133.255 23.4133C133.368 23.1765 133.518 22.996 133.708 22.8717C133.9 22.7473 134.118 22.6852 134.361 22.6852C134.6 22.6852 134.816 22.7473 135.009 22.8717C135.201 22.996 135.352 23.1765 135.462 23.4133C135.571 23.6501 135.626 23.9372 135.626 24.2747C135.626 24.6121 135.571 24.8992 135.462 25.136C135.352 25.3728 135.201 25.5533 135.009 25.6777C134.816 25.802 134.6 25.8641 134.361 25.8641ZM134.361 25.469C134.523 25.469 134.665 25.4246 134.787 25.3358C134.911 25.247 135.007 25.1138 135.075 24.9362C135.146 24.7586 135.182 24.5381 135.182 24.2747C135.182 24.0112 135.146 23.7907 135.075 23.6131C135.007 23.4355 134.911 23.3023 134.787 23.2135C134.665 23.1247 134.523 23.0803 134.361 23.0803C134.198 23.0803 134.054 23.1247 133.93 23.2135C133.806 23.3023 133.708 23.4355 133.637 23.6131C133.569 23.7907 133.535 24.0112 133.535 24.2747C133.535 24.5381 133.569 24.7586 133.637 24.9362C133.708 25.1138 133.806 25.247 133.93 25.3358C134.054 25.4246 134.198 25.469 134.361 25.469ZM137.322 25.8641C137.079 25.8641 136.862 25.802 136.669 25.6777C136.48 25.5533 136.329 25.3728 136.216 25.136C136.107 24.8992 136.052 24.6121 136.052 24.2747C136.052 23.9372 136.107 23.6501 136.216 23.4133C136.329 23.1765 136.48 22.996 136.669 22.8717C136.862 22.7473 137.079 22.6852 137.322 22.6852C137.562 22.6852 137.778 22.7473 137.97 22.8717C138.163 22.996 138.314 23.1765 138.423 23.4133C138.533 23.6501 138.587 23.9372 138.587 24.2747C138.587 24.6121 138.533 24.8992 138.423 25.136C138.314 25.3728 138.163 25.5533 137.97 25.6777C137.778 25.802 137.562 25.8641 137.322 25.8641ZM137.322 25.469C137.485 25.469 137.627 25.4246 137.748 25.3358C137.872 25.247 137.969 25.1138 138.037 24.9362C138.108 24.7586 138.143 24.5381 138.143 24.2747C138.143 24.0112 138.108 23.7907 138.037 23.6131C137.969 23.4355 137.872 23.3023 137.748 23.2135C137.627 23.1247 137.485 23.0803 137.322 23.0803C137.159 23.0803 137.016 23.1247 136.891 23.2135C136.767 23.3023 136.669 23.4355 136.598 23.6131C136.53 23.7907 136.496 24.0112 136.496 24.2747C136.496 24.5381 136.53 24.7586 136.598 24.9362C136.669 25.1138 136.767 25.247 136.891 25.3358C137.016 25.4246 137.159 25.469 137.322 25.469ZM140.459 25.8286V22.7207H141.671C141.943 22.7207 142.176 22.7636 142.368 22.8495C142.56 22.9353 142.708 23.0596 142.812 23.2224C142.916 23.3852 142.967 23.5791 142.967 23.804C142.967 24.029 142.916 24.2229 142.812 24.3857C142.708 24.5455 142.56 24.6698 142.368 24.7586C142.176 24.8444 141.943 24.8874 141.671 24.8874H140.703L140.903 24.6787V25.8286H140.459ZM140.903 24.7231L140.703 24.5011H141.658C141.942 24.5011 142.156 24.4404 142.301 24.3191C142.449 24.1977 142.523 24.026 142.523 23.804C142.523 23.582 142.449 23.4104 142.301 23.289C142.156 23.1676 141.942 23.107 141.658 23.107H140.703L140.903 22.885V24.7231ZM143.62 25.8286V22.7207H143.984L145.378 25.0694H145.183L146.559 22.7207H146.923L146.927 25.8286H146.501L146.497 23.3911H146.599L145.373 25.4512H145.169L143.935 23.3911H144.046V25.8286H143.62Z" fill="white"/>
<path d="M95.8056 11.0447H75.6855C74.7185 11.0447 73.9346 12.0125 73.9346 13.2064V16.6514C73.9346 17.8453 74.7185 18.8131 75.6855 18.8131H95.8056C96.7726 18.8131 97.5566 17.8453 97.5566 16.6514V13.2064C97.5566 12.0125 96.7726 11.0447 95.8056 11.0447Z" fill="#5D0F36"/>
<path d="M78.2722 16.4741V13.5438L78.4631 13.7525H77.5707V13.3662H78.7117V16.4741H78.2722ZM79.6846 14.707C79.6017 14.707 79.5307 14.6789 79.4715 14.6227C79.4123 14.5635 79.3827 14.4895 79.3827 14.4007C79.3827 14.3119 79.4123 14.2394 79.4715 14.1831C79.5307 14.1269 79.6017 14.0988 79.6846 14.0988C79.7645 14.0988 79.8326 14.1269 79.8888 14.1831C79.948 14.2394 79.9776 14.3119 79.9776 14.4007C79.9776 14.4895 79.948 14.5635 79.8888 14.6227C79.8326 14.6789 79.7645 14.707 79.6846 14.707ZM79.6846 16.5008C79.6017 16.5008 79.5307 16.4726 79.4715 16.4164C79.4123 16.3572 79.3827 16.2832 79.3827 16.1944C79.3827 16.1056 79.4123 16.0331 79.4715 15.9769C79.5307 15.9206 79.6017 15.8925 79.6846 15.8925C79.7645 15.8925 79.8326 15.9206 79.8888 15.9769C79.948 16.0331 79.9776 16.1056 79.9776 16.1944C79.9776 16.2832 79.948 16.3572 79.8888 16.4164C79.8326 16.4726 79.7645 16.5008 79.6846 16.5008ZM81.6673 16.5096C81.4246 16.5096 81.207 16.4475 81.0146 16.3232C80.8252 16.1988 80.6742 16.0183 80.5617 15.7815C80.4522 15.5447 80.3975 15.2576 80.3975 14.9202C80.3975 14.5827 80.4522 14.2956 80.5617 14.0588C80.6742 13.822 80.8252 13.6415 81.0146 13.5172C81.207 13.3928 81.4246 13.3307 81.6673 13.3307C81.907 13.3307 82.1231 13.3928 82.3155 13.5172C82.5079 13.6415 82.6588 13.822 82.7684 14.0588C82.8779 14.2956 82.9326 14.5827 82.9326 14.9202C82.9326 15.2576 82.8779 15.5447 82.7684 15.7815C82.6588 16.0183 82.5079 16.1988 82.3155 16.3232C82.1231 16.4475 81.907 16.5096 81.6673 16.5096ZM81.6673 16.1145C81.8301 16.1145 81.9721 16.0701 82.0935 15.9813C82.2178 15.8925 82.314 15.7593 82.3821 15.5817C82.4531 15.4041 82.4886 15.1836 82.4886 14.9202C82.4886 14.6567 82.4531 14.4362 82.3821 14.2586C82.314 14.081 82.2178 13.9478 82.0935 13.859C81.9721 13.7702 81.8301 13.7258 81.6673 13.7258C81.5045 13.7258 81.3609 13.7702 81.2366 13.859C81.1123 13.9478 81.0146 14.081 80.9436 14.2586C80.8755 14.4362 80.8414 14.6567 80.8414 14.9202C80.8414 15.1836 80.8755 15.4041 80.9436 15.5817C81.0146 15.7593 81.1123 15.8925 81.2366 15.9813C81.3609 16.0701 81.5045 16.1145 81.6673 16.1145ZM84.6286 16.5096C84.3859 16.5096 84.1684 16.4475 83.976 16.3232C83.7865 16.1988 83.6356 16.0183 83.5231 15.7815C83.4136 15.5447 83.3588 15.2576 83.3588 14.9202C83.3588 14.5827 83.4136 14.2956 83.5231 14.0588C83.6356 13.822 83.7865 13.6415 83.976 13.5172C84.1684 13.3928 84.3859 13.3307 84.6286 13.3307C84.8684 13.3307 85.0845 13.3928 85.2769 13.5172C85.4692 13.6415 85.6202 13.822 85.7297 14.0588C85.8392 14.2956 85.894 14.5827 85.894 14.9202C85.894 15.2576 85.8392 15.5447 85.7297 15.7815C85.6202 16.0183 85.4692 16.1988 85.2769 16.3232C85.0845 16.4475 84.8684 16.5096 84.6286 16.5096ZM84.6286 16.1145C84.7914 16.1145 84.9335 16.0701 85.0549 15.9813C85.1792 15.8925 85.2754 15.7593 85.3435 15.5817C85.4145 15.4041 85.45 15.1836 85.45 14.9202C85.45 14.6567 85.4145 14.4362 85.3435 14.2586C85.2754 14.081 85.1792 13.9478 85.0549 13.859C84.9335 13.7702 84.7914 13.7258 84.6286 13.7258C84.4658 13.7258 84.3223 13.7702 84.198 13.859C84.0736 13.9478 83.976 14.081 83.9049 14.2586C83.8369 14.4362 83.8028 14.6567 83.8028 14.9202C83.8028 15.1836 83.8369 15.4041 83.9049 15.5817C83.976 15.7593 84.0736 15.8925 84.198 15.9813C84.3223 16.0701 84.4658 16.1145 84.6286 16.1145ZM87.7656 16.4741V13.3662H88.9777C89.25 13.3662 89.4824 13.4091 89.6748 13.495C89.8672 13.5808 90.0152 13.7051 90.1188 13.8679C90.2223 14.0307 90.2741 14.2246 90.2741 14.4495C90.2741 14.6745 90.2223 14.8684 90.1188 15.0312C90.0152 15.191 89.8672 15.3153 89.6748 15.4041C89.4824 15.4899 89.25 15.5329 88.9777 15.5329H88.0098L88.2096 15.3242V16.4741H87.7656ZM88.2096 15.3686L88.0098 15.1466H88.9644C89.2485 15.1466 89.4631 15.0859 89.6082 14.9646C89.7562 14.8432 89.8302 14.6715 89.8302 14.4495C89.8302 14.2275 89.7562 14.0559 89.6082 13.9345C89.4631 13.8132 89.2485 13.7525 88.9644 13.7525H88.0098L88.2096 13.5305V15.3686ZM90.9264 16.4741V13.3662H91.2905L92.6846 15.7149H92.4893L93.8656 13.3662H94.2297L94.2341 16.4741H93.8079L93.8035 14.0366H93.9056L92.6802 16.0967H92.4759L91.2417 14.0366H91.3527V16.4741H90.9264Z" fill="white"/>
<path opacity="0.2" d="M49.5771 58.2976C50.2621 60.7618 51.0837 63.1882 52.037 65.5616C52.2329 62.8995 51.1642 60.4438 49.5771 58.2976Z" fill="white"/>
<path opacity="0.2" d="M30.48 58.0986C28.9069 59.6309 27.7256 61.5624 27.0781 63.6609C28.7227 62.0801 29.8935 60.303 30.48 58.0986Z" fill="white"/>
<path opacity="0.2" d="M40.915 58.9712C43.0945 56.9231 44.2439 53.8293 43.9303 50.855C44.163 51.8983 44.424 53.1 44.4142 54.1689C44.4044 55.2379 44.1531 56.3313 43.5268 57.1976C42.9004 58.0639 41.9821 59.0354 40.915 58.9712Z" fill="white"/>
<path opacity="0.1" d="M36.9102 70.583C39.4311 72.8402 42.7362 74.2041 46.1154 74.3816C44.9867 74.1797 43.4364 74.5255 42.2937 74.4301C41.1511 74.3347 39.9927 74.1464 38.9738 73.6206C37.9548 73.0949 37.1542 71.7034 36.9102 70.583Z" fill="black"/>
</g>
<defs>
<clipPath id="clip0_763_5676">
<rect width="163" height="139" fill="white"/>
</clipPath>
</defs>
</svg>
