<svg width="140" height="33" viewBox="0 0 140 33" fill="none" xmlns="http://www.w3.org/2000/svg">
<path d="M117.073 28.0004H119.312V12.9982H117.073V28.0004ZM137.242 18.4027L134.675 24.9065H134.598L131.934 18.4027H129.522L133.518 27.4928L131.239 32.5495H133.575L139.732 18.4032L137.242 18.4027ZM124.543 26.2963C123.811 26.2963 122.787 25.9293 122.787 25.0223C122.787 23.8644 124.061 23.4205 125.161 23.4205C126.145 23.4205 126.609 23.6325 127.207 23.9221C127.033 25.3119 125.836 26.2963 124.543 26.2963ZM124.814 18.0746C123.193 18.0746 121.514 18.7889 120.819 20.3715L122.806 21.2012C123.231 20.3715 124.022 20.1015 124.852 20.1015C126.01 20.1015 127.187 20.7957 127.206 22.0313V22.1855C126.801 21.9539 125.932 21.6067 124.871 21.6067C122.728 21.6067 120.548 22.7836 120.548 24.9838C120.548 26.991 122.305 28.2843 124.273 28.2843C125.777 28.2843 126.609 27.6088 127.128 26.8172H127.206V27.9758H129.369V22.2239C129.369 19.5605 127.379 18.0746 124.814 18.0746ZM110.975 20.2289H107.79V15.0869H110.975C112.649 15.0869 113.6 16.4726 113.6 17.6579C113.6 18.8204 112.649 20.2289 110.975 20.2289ZM110.918 12.9986H105.552V28.0008H107.791V22.3173H110.918C113.399 22.3173 115.839 20.5211 115.839 17.6584C115.839 14.7963 113.399 12.9986 110.918 12.9986ZM81.6611 26.2989C80.1142 26.2989 78.8195 25.0032 78.8195 23.2253C78.8195 21.4268 80.1142 20.1128 81.6611 20.1128C83.1884 20.1128 84.3869 21.4268 84.3869 23.2253C84.3869 25.0032 83.1884 26.2989 81.6611 26.2989ZM84.2322 19.2425H84.1548C83.6523 18.6434 82.6853 18.102 81.468 18.102C78.9157 18.102 76.5766 20.345 76.5766 23.2253C76.5766 26.0861 78.9157 28.3093 81.468 28.3093C82.6853 28.3093 83.6523 27.7678 84.1548 27.1496H84.2322V27.8837C84.2322 29.8369 83.1884 30.8803 81.5064 30.8803C80.1344 30.8803 79.2837 29.8945 78.9354 29.0634L76.9832 29.8752C77.5433 31.2279 79.0315 32.8912 81.5065 32.8912C84.1362 32.8912 86.3593 31.3442 86.3593 27.5742V18.4112H84.2323L84.2322 19.2425ZM87.9062 27.9999H90.1477V12.9978H87.9062V27.9999ZM93.4538 23.051C93.3961 21.079 94.9819 20.074 96.1219 20.074C97.0116 20.074 97.7648 20.5188 98.017 21.1563L93.4538 23.051ZM100.413 21.3494C99.9881 20.2095 98.6929 18.102 96.0445 18.102C93.4149 18.102 91.2305 20.1705 91.2305 23.2057C91.2305 26.0669 93.3961 28.3094 96.2953 28.3094C98.6343 28.3094 99.9881 26.8793 100.549 26.0477L98.8091 24.8876C98.2289 25.7383 97.4367 26.2989 96.2953 26.2989C95.1554 26.2989 94.343 25.7768 93.8218 24.7522L100.645 21.9299L100.413 21.3494ZM46.0448 19.6681V21.8332H51.2256C51.071 23.0511 50.665 23.9402 50.0463 24.559C49.2921 25.3127 48.1128 26.1442 46.0447 26.1442C42.8548 26.1442 40.3611 23.5732 40.3611 20.3834C40.3611 17.1936 42.8548 14.6222 46.0447 14.6222C47.7653 14.6222 49.0216 15.299 49.9496 16.1689L51.4773 14.6413C50.1816 13.4043 48.4614 12.457 46.0447 12.457C41.675 12.457 38.002 16.0142 38.002 20.3834C38.002 24.7521 41.675 28.3094 46.0447 28.3094C48.4029 28.3094 50.1817 27.536 51.5734 26.0862C53.0041 24.6555 53.4488 22.6451 53.4488 21.0209C53.4488 20.5189 53.4098 20.0549 53.3326 19.6681H46.0448ZM59.3396 26.2989C57.7927 26.2989 56.4587 25.0229 56.4587 23.2057C56.4587 21.3692 57.7927 20.1129 59.3396 20.1129C60.8859 20.1129 62.2199 21.3692 62.2199 23.2057C62.2199 25.0229 60.8859 26.2989 59.3396 26.2989ZM59.3396 18.102C56.5163 18.102 54.2162 20.2478 54.2162 23.2057C54.2162 26.1442 56.5163 28.3094 59.3396 28.3094C62.1619 28.3094 64.4625 26.1442 64.4625 23.2057C64.4625 20.2478 62.1619 18.102 59.3396 18.102ZM70.515 26.2989C68.9692 26.2989 67.6347 25.0229 67.6347 23.2057C67.6347 21.3692 68.9693 20.1129 70.515 20.1129C72.062 20.1129 73.3955 21.3692 73.3955 23.2057C73.3955 25.0229 72.062 26.2989 70.515 26.2989ZM70.515 18.102C67.6928 18.102 65.3926 20.2478 65.3926 23.2057C65.3926 26.1442 67.6928 28.3094 70.515 28.3094C73.3383 28.3094 75.6385 26.1442 75.6385 23.2057C75.6385 20.2478 73.3383 18.102 70.515 18.102Z" fill="white"/>
<path d="M13.608 15.7325L19.8861 22.5656L5.81785 30.6836L5.81619 30.6845L5.77539 30.7084L5.77474 30.7088C5.30451 30.986 4.75596 31.1441 4.17055 31.1441C2.7609 31.1441 1.56478 30.2211 1.15894 28.9464L13.608 15.7325Z" fill="white" stroke="#130F11" stroke-width="0.577333"/>
<path d="M26.3726 13.2384L26.3844 13.2464L26.397 13.2533C27.3801 13.7912 28.0439 14.832 28.0439 16.0291C28.0439 17.2349 27.371 18.2811 26.3777 18.8173L26.3777 18.8172L26.3706 18.8213L20.3867 22.2739L13.7408 15.6289L20.3508 9.74705L26.3692 13.2361L26.3726 13.2384Z" fill="white" stroke="#130F11" stroke-width="0.577333"/>
<path d="M1.00546 4.02068C1.00546 3.91469 1.01067 3.81031 1.02087 3.7076L13.6363 15.6614L1.01901 28.2761C1.01002 28.1794 1.00546 28.0811 1.00546 27.9815V4.02068Z" fill="white" stroke="#130F11" stroke-width="0.577333"/>
<path d="M5.95262 1.06351C5.43051 0.750791 4.82113 0.570312 4.16908 0.570312C2.57301 0.570312 1.22633 1.65644 0.834465 3.13056C0.833984 3.132 0.833984 3.13299 0.833984 3.13425L5.95262 1.06351ZM13.7041 15.5941L1.15866 3.05067C1.56765 1.77913 2.76308 0.858979 4.16908 0.858979C4.76707 0.858979 5.32541 1.02433 5.80429 1.31115L5.80428 1.31118L5.80783 1.31323L19.847 9.45298L13.7041 15.5941Z" fill="white" stroke="#130F11" stroke-width="0.577333"/>
<path d="M45.6235 3.73785H42.1229V4.60412H44.7461C44.6748 5.31103 44.3935 5.86602 43.9192 6.26913C43.4448 6.67232 42.8392 6.87476 42.123 6.87476C41.3373 6.87476 40.6717 6.60104 40.1262 6.05734C39.5917 5.50235 39.3199 4.81605 39.3199 3.98922C39.3199 3.16243 39.5917 2.47613 40.1262 1.92118C40.6717 1.37747 41.3373 1.10556 42.123 1.10556C42.5261 1.10556 42.9105 1.17492 43.2629 1.32684C43.6155 1.47863 43.8985 1.69055 44.1198 1.96247L44.7854 1.29684C44.4835 0.953649 44.1011 0.691208 43.6266 0.499939C43.1522 0.30866 42.6573 0.21686 42.1229 0.21686C41.0748 0.21686 40.1861 0.58057 39.4605 1.30623C38.7348 2.03366 38.3711 2.92993 38.3711 3.98923C38.3711 5.04854 38.7348 5.94675 39.4605 6.67242C40.1861 7.39792 41.0748 7.76179 42.1229 7.76179C43.2235 7.76179 44.101 7.40924 44.776 6.69294C45.3703 6.0968 45.674 5.29055 45.674 4.28183C45.674 4.11118 45.6535 3.92913 45.6235 3.73785ZM46.9796 0.377952V7.60041H51.1963V6.71351H47.9077V4.42236H50.874V3.5561H47.9077V1.26675H51.1963V0.377925L46.9796 0.377952ZM57.1092 1.26678V0.377952H52.1461V1.26678H54.1637V7.60039H55.0918V1.26678H57.1092ZM61.6025 0.377952H60.6744V7.60041H61.6025V0.377952ZM67.7285 1.26678V0.377952H62.7655V1.26678H64.7828V7.60039H65.7109V1.26678H67.7285ZM77.0939 1.31741C76.3776 0.580517 75.5002 0.216797 74.452 0.216797C73.4021 0.216797 72.5247 0.580508 71.8084 1.30616C71.0921 2.02243 70.7397 2.9205 70.7397 3.98917C70.7397 5.05784 71.0921 5.95604 71.8084 6.67236C72.5246 7.39786 73.4021 7.76172 74.452 7.76172C75.4907 7.76172 76.3776 7.39789 77.0939 6.67236C77.8102 5.95609 78.1626 5.05793 78.1626 3.98917C78.1626 2.92986 77.8102 2.03355 77.0939 1.31741ZM72.474 1.92112C73.0084 1.37741 73.6646 1.1055 74.452 1.1055C75.2377 1.1055 75.8939 1.37742 76.4189 1.92112C76.9533 2.45547 77.2157 3.15287 77.2157 3.98915C77.2157 4.82734 76.9533 5.52285 76.4189 6.05728C75.8939 6.60099 75.2377 6.8747 74.452 6.8747C73.6646 6.8747 73.0083 6.60098 72.474 6.05728C71.9508 5.51165 71.6884 4.82733 71.6884 3.98915C71.6884 3.15289 71.9508 2.4667 72.474 1.92112ZM80.3676 3.10238L80.3283 1.70917H80.3676L84.0388 7.60034H85.0081V0.37788H84.08V4.60404L84.1194 5.99724H84.08L80.5701 0.37788H79.4395V7.60034H80.3676V3.10238Z" fill="white" stroke="white" stroke-width="0.239995" stroke-miterlimit="10"/>
</svg>
